<?xml version="1.0" encoding="utf-8"?>
<svg version="1.1" id="Layer_1" xmlns="http://www.w3.org/2000/svg" x="0px" y="0px" width="256px" viewBox="0 0 256 256" enable-background="new 0 0 1024 1024" xmlns:bx="https://boxy-svg.com" height="256px"><defs><bx:export><bx:file format="svg"/></bx:export></defs><rect width="256" height="256" style="fill: rgb(41, 45, 59); stroke: rgba(0, 0, 0, 0);" rx="60" ry="60"/><path fill="#D8E3C4" opacity="1.000000" stroke="none" d="M 129.156 28.706 C 133.786 29.769 138.415 30.831 143.108 31.91 C 143.108 26.684 143.108 21.521 143.108 16.363 C 143.108 15.236 144.03 13.875 145.015 13.517 C 145.809 13.235 146.581 13.696 146.598 14.541 C 146.701 19.806 146.816 25.075 146.812 30.34 C 146.812 31.049 146.155 31.757 145.771 32.533 C 147.332 32.909 149.005 33.31 150.677 33.711 C 155.541 34.871 160.393 36.053 165.265 37.18 C 172.258 38.797 179.268 40.346 186.257 41.971 C 191.006 43.076 195.729 44.292 200.474 45.419 C 203.806 46.212 207.155 46.942 210.496 47.701 C 212.117 48.068 212.843 48.87 212.783 50.475 C 212.655 54.059 212.48 57.643 212.288 61.222 C 212.156 63.727 211.955 66.223 211.797 68.727 C 211.541 72.789 211.298 76.851 211.042 80.917 C 210.884 83.46 210.709 85.999 210.547 88.542 C 210.295 92.565 210.052 96.589 209.796 100.608 C 209.634 103.108 209.459 105.609 209.297 108.109 C 209.045 112.09 208.798 116.07 208.546 120.051 C 208.384 122.675 208.218 125.303 208.047 127.927 C 207.799 131.785 207.548 135.637 207.3 139.494 C 207.13 142.118 206.967 144.742 206.801 147.371 C 206.549 151.266 206.302 155.166 206.05 159.061 C 205.884 161.643 205.717 164.228 205.551 166.814 C 205.299 170.709 205.052 174.605 204.8 178.5 C 204.634 181.086 204.471 183.671 204.301 186.253 C 204.198 187.861 203.716 189.022 202.052 189.884 C 197.47 192.252 193.041 194.918 188.544 197.449 C 185.626 199.087 182.677 200.674 179.767 202.317 C 174.673 205.188 169.6 208.102 164.506 210.974 C 160.892 213.013 157.252 215.014 153.626 217.037 C 150.114 218.999 146.611 220.966 143.002 222.989 C 143.689 223.488 144.175 223.876 144.7 224.209 C 145.549 224.751 146.317 225.417 147.516 225.079 C 147.998 224.943 148.698 225.293 149.205 225.583 C 151.104 226.65 152.951 227.806 154.842 228.881 C 155.878 229.474 155.802 230.451 155.482 231.223 C 153.886 235.042 152.021 238.72 149.184 241.796 C 147.878 243.209 146.419 244.484 145.122 245.905 C 144.013 247.125 142.498 247.019 141.295 246.033 C 139.742 244.762 138.308 243.332 136.755 242.057 C 135.454 240.99 135.279 239.522 135.991 237.931 C 133.385 236.454 130.782 234.982 128.213 233.527 C 125.632 234.944 122.918 236.433 120.205 237.926 C 121.131 239.799 120.666 241.314 118.827 242.701 C 117.85 243.435 116.868 244.186 116.006 245.047 C 113.463 247.599 112.448 247.198 110.229 245.201 C 105.92 241.318 102.925 236.51 100.723 231.185 C 100.271 230.097 100.71 229.316 101.786 228.715 C 103.471 227.763 105.135 226.773 106.782 225.754 C 107.682 225.199 108.548 224.866 109.653 225.101 C 110.076 225.19 110.635 224.768 111.091 224.512 C 111.791 224.128 112.461 223.684 113.237 223.202 C 107.819 220.105 102.554 217.062 97.259 214.076 C 92.834 211.58 88.363 209.169 83.934 206.682 C 78.131 203.426 72.358 200.124 66.56 196.855 C 62.417 194.517 58.334 192.051 54.076 189.948 C 52.13 188.983 51.529 187.652 51.447 185.754 C 51.285 182.089 51.127 178.419 50.944 174.754 C 50.799 171.921 50.62 169.088 50.449 166.255 C 50.202 162.189 49.946 158.127 49.698 154.061 C 49.446 149.956 49.199 145.852 48.947 141.747 C 48.785 139.038 48.614 136.329 48.452 133.619 C 48.201 129.476 47.953 125.329 47.701 121.182 C 47.535 118.515 47.364 115.849 47.202 113.182 C 46.95 109.035 46.703 104.887 46.451 100.74 C 46.289 98.112 46.114 95.488 45.952 92.864 C 45.7 88.759 45.453 84.655 45.201 80.546 C 45.039 77.841 44.868 75.132 44.706 72.422 C 44.454 68.275 44.198 64.128 43.955 59.981 C 43.776 56.9 43.584 53.815 43.469 50.731 C 43.396 48.862 44.006 48.128 45.751 47.71 C 49.946 46.703 54.14 45.709 58.334 44.706 C 63.821 43.392 69.308 42.074 74.795 40.764 C 81.148 39.245 87.497 37.73 93.85 36.228 C 99.814 34.816 105.783 33.429 111.744 32.026 C 116.373 30.933 120.998 29.815 125.632 28.745 C 126.187 28.617 126.793 28.723 127.573 28.71 C 128.235 28.702 128.695 28.706 129.156 28.706 M 138.176 237.491 C 137.916 237.862 137.724 238.306 137.391 238.588 C 136.555 239.305 136.538 240.026 137.31 240.73 C 138.799 242.099 140.378 243.379 141.828 244.791 C 142.699 245.636 143.492 245.449 144.333 244.907 C 144.713 244.663 145.037 244.322 145.34 243.985 C 146.684 242.492 148.194 241.105 149.308 239.454 C 151.275 236.544 152.99 233.468 154.863 230.383 C 152.218 228.868 149.837 227.507 147.332 226.074 C 147.046 226.411 146.743 226.765 146.308 227.029 C 144.926 226.15 143.488 225.344 142.187 224.358 C 141.619 223.923 141.329 223.125 141.056 222.421 C 142.601 221.525 144.132 220.617 145.685 219.742 C 157.385 213.158 169.084 206.579 180.787 200 C 187.674 196.134 194.56 192.273 201.455 188.416 C 202.159 188.019 202.765 187.657 202.803 186.675 C 202.927 183.684 203.136 180.698 203.324 177.707 C 203.682 171.977 204.045 166.251 204.412 160.521 C 204.877 153.297 205.355 146.078 205.815 138.854 C 206.268 131.797 206.703 124.74 207.159 117.683 C 207.616 110.545 208.098 103.407 208.55 96.269 C 209.011 89.045 209.446 81.822 209.894 74.598 C 210.368 66.957 210.859 59.319 211.315 51.682 C 211.443 49.502 211.332 49.425 209.216 48.93 C 183.343 42.88 157.47 36.83 131.597 30.788 C 129.617 30.323 127.667 29.841 125.577 30.34 C 108.911 34.317 92.233 38.238 75.558 42.193 C 65.83 44.501 56.111 46.848 46.383 49.148 C 45.342 49.395 44.727 49.856 44.791 50.991 C 45.116 56.597 45.427 62.204 45.764 67.81 C 46.225 75.366 46.716 82.923 47.177 90.479 C 47.625 97.826 48.051 105.178 48.499 112.525 C 49.05 121.455 49.621 130.377 50.167 139.302 C 50.62 146.735 51.046 154.167 51.49 161.604 C 51.972 169.655 52.48 177.711 52.919 185.766 C 52.988 187.017 53.355 187.776 54.507 188.416 C 69.641 196.855 84.749 205.338 99.849 213.833 C 104.99 216.725 110.089 219.686 115.162 222.78 C 114.705 223.394 114.359 224.158 113.775 224.597 C 112.559 225.502 111.215 226.236 109.764 226.948 C 109.346 226.133 108.753 226.099 108.045 226.56 C 107.563 226.871 107.085 227.2 106.59 227.494 C 105.003 228.442 103.407 229.372 101.845 230.289 C 103.962 236.834 108.015 241.745 113.246 245.794 C 115.255 243.989 117.184 242.219 119.155 240.495 C 119.77 239.962 119.855 239.561 119.245 238.98 C 118.737 238.498 118.319 237.926 118.042 237.329 C 119.868 236.339 121.698 235.362 123.516 234.359 C 125.431 233.297 127.684 232.585 128.166 229.884 C 128.324 231.569 129.344 232.508 130.59 233.207 C 133.124 234.633 135.697 235.981 138.176 237.491 M 145.86 17.86 C 145.86 16.742 145.86 15.62 145.86 14.498 C 144.457 15.164 143.825 15.945 143.855 17.31 C 143.949 21.589 143.91 25.873 143.932 30.157 C 143.936 30.673 143.996 31.185 144.03 31.727 C 145.459 31.377 146.065 30.639 146.044 29.333 C 145.997 25.591 145.924 21.854 145.86 17.86 Z" style=""/><path fill="#D5E0C2" opacity="1.000000" stroke="none" d="M 100.855 7.565 C 103.462 8.96 103.488 11.26 101.986 12.996 C 101.184 13.922 101.197 14.805 101.594 15.829 C 101.756 16.239 101.85 16.67 102.003 17.182 C 103.07 14.127 104.098 11.153 105.143 8.183 C 105.276 7.804 105.446 7.437 105.638 7.087 C 106.351 5.773 106.901 5.683 108.117 6.571 C 109.359 7.479 110.656 8.324 110.391 10.176 C 110.306 10.778 110.285 11.396 110.127 11.981 C 109.995 12.493 109.803 13.282 109.47 13.38 C 108.932 13.538 108.254 13.244 107.644 13.103 C 107.503 13.073 107.396 12.894 107.238 12.753 C 106.291 14.955 105.353 17.131 104.299 19.584 C 106.189 19.102 107.913 18.688 109.611 18.206 C 109.841 18.138 110.02 17.741 110.131 17.459 C 110.767 15.812 111.398 14.161 111.974 12.489 C 112.068 12.224 111.97 11.772 111.791 11.55 C 110.455 9.92 111.232 8.051 111.262 6.319 C 111.279 5.453 112.742 5.205 113.365 5.833 C 114.372 6.844 115.383 7.846 116.382 8.866 C 116.954 9.446 117.171 11.469 116.659 12.07 C 114.539 14.558 113.634 17.651 112.422 20.578 C 111.778 22.135 111.031 23.287 109.201 23.603 C 106.658 24.038 104.158 24.687 101.632 25.225 C 100.348 25.502 99.853 24.717 99.657 23.633 C 99.145 20.809 98.586 17.984 98.197 15.138 C 98.086 14.323 98.483 13.436 98.684 12.403 C 98.56 12.292 98.185 12.066 97.963 11.738 C 97.562 11.14 97.071 10.517 96.947 9.843 C 96.772 8.917 96.794 7.919 96.943 6.985 C 97.033 6.455 97.446 5.777 97.899 5.572 C 98.244 5.414 98.94 5.803 99.366 6.106 C 99.904 6.485 100.322 7.027 100.855 7.565 M 103.932 23.898 C 105.502 23.509 107.063 23.07 108.646 22.754 C 110.046 22.473 110.861 21.722 111.403 20.386 C 112.666 17.284 113.707 14.063 115.844 11.383 C 116.369 10.722 116.19 10.065 115.584 9.502 C 114.526 8.516 113.476 7.526 112.427 6.541 C 111.603 7.876 111.778 9.745 112.687 10.991 C 112.994 11.418 113.156 12.181 113.003 12.672 C 112.418 14.524 111.697 16.341 110.972 18.146 C 110.814 18.534 110.473 19.046 110.123 19.136 C 107.823 19.738 105.498 20.233 102.933 20.821 C 103.168 20.011 103.262 19.486 103.462 18.999 C 104.341 16.896 105.246 14.805 106.146 12.71 C 106.816 11.157 106.957 11.14 108.233 12.297 C 108.407 12.45 108.629 12.553 108.83 12.681 C 110.14 10.556 109.491 8.623 106.705 6.839 C 105.139 11.285 103.595 15.663 101.965 20.279 C 101.649 19.328 101.414 18.59 101.154 17.86 C 100.39 15.701 99.763 13.598 101.662 11.605 C 102.187 11.059 102.4 10.172 101.615 9.485 C 100.48 8.495 99.341 7.509 98.189 6.511 C 97.331 8.427 97.621 10.159 99.051 11.341 C 99.823 11.977 99.921 12.595 99.524 13.513 C 99.247 14.157 99.145 14.967 99.238 15.667 C 99.511 17.681 99.9 19.682 100.292 21.675 C 100.864 24.538 100.224 24.734 103.932 23.898 Z" style=""/><path fill="#D7E1C3" opacity="1.000000" stroke="none" d="M 154.53 20.181 C 153.532 21.589 152.627 22.959 151.65 24.273 C 151.407 24.597 150.942 24.87 150.537 24.947 C 149.679 25.114 149.103 24.994 149.056 23.787 C 148.979 21.713 150.263 20.322 151.219 18.765 C 152.085 17.357 153.079 16.026 154.039 14.673 C 154.658 13.803 154.069 13.047 153.741 12.343 C 153.587 12.019 152.93 11.776 152.499 11.767 C 149.794 11.716 147.089 11.746 144.388 11.742 C 142.541 11.733 142.357 11.546 142.357 9.711 C 142.357 8.841 142.319 7.962 142.366 7.091 C 142.438 5.773 143.317 5.363 144.491 5.969 C 145.041 6.255 145.702 6.455 146.317 6.468 C 148.855 6.524 151.394 6.426 153.929 6.519 C 155.034 6.566 156.407 6.426 156.817 7.953 C 156.983 8.576 156.996 9.237 157.103 9.882 C 157.342 11.319 157.726 12.745 157.786 14.191 C 157.824 15.057 157.525 16.051 157.082 16.811 C 156.386 17.988 155.435 19.021 154.53 20.181 M 145.169 7.454 C 144.653 7.223 144.137 6.993 143.403 6.669 C 143.334 7.595 143.296 8.439 143.202 9.28 C 143.078 10.381 143.45 10.829 144.64 10.79 C 147.422 10.705 150.212 10.739 152.994 10.756 C 153.429 10.761 153.971 10.807 154.274 11.063 C 155.221 11.866 155.422 14.511 154.701 15.573 C 153.468 17.391 152.175 19.179 151.014 21.043 C 150.443 21.961 150.11 23.023 149.67 24.017 C 149.769 24.077 149.871 24.132 149.973 24.192 C 150.174 24.068 150.374 23.94 150.579 23.825 C 151.735 23.181 152.115 21.978 152.772 20.945 C 153.771 19.375 155.089 18.001 156.079 16.427 C 156.548 15.684 156.787 14.656 156.745 13.773 C 156.672 12.25 156.275 10.743 156.062 9.225 C 155.891 7.991 155.298 7.433 153.988 7.462 C 151.125 7.526 148.254 7.479 145.169 7.454 Z" style=""/><path fill="#D7E2C3" opacity="1.000000" stroke="none" d="M 127.573 25.212 C 127.505 24.772 127.386 24.333 127.381 23.898 C 127.364 20.608 127.39 17.323 127.356 14.033 C 127.351 13.308 127.177 12.587 127.066 11.742 C 125.043 11.742 123.012 11.674 120.986 11.759 C 117.705 11.895 117.559 10.863 118.037 7.761 C 118.391 5.423 118.583 5.461 120.892 6.362 C 121.186 6.477 121.532 6.485 121.856 6.485 C 123.644 6.498 125.436 6.519 127.223 6.481 C 128.175 6.46 129.122 6.699 130.01 5.862 C 130.483 5.414 131.46 5.589 131.861 6.468 C 132.565 8.009 132.096 10.291 130.901 11.507 C 130.697 11.716 130.624 12.147 130.641 12.467 C 130.782 15.386 130.876 18.308 131.153 21.214 C 131.315 22.899 130.667 24.064 129.314 25.143 C 128.657 25.229 128.115 25.22 127.573 25.212 M 129.911 16.832 C 129.839 15.172 129.749 13.508 129.702 11.844 C 129.694 11.507 129.749 11.046 129.963 10.846 C 131.247 9.647 131.546 8.337 130.91 6.997 C 126.933 7.74 123.068 7.817 118.882 6.844 C 118.882 7.718 118.929 8.657 118.869 9.591 C 118.814 10.458 119.134 10.778 120.009 10.761 C 122.129 10.718 124.254 10.743 126.374 10.752 C 127.915 10.756 128.115 10.935 128.119 12.463 C 128.137 15.919 128.119 19.371 128.137 22.827 C 128.137 23.326 128.247 23.821 128.32 24.461 C 129.609 23.671 130.338 22.882 130.155 21.436 C 129.971 19.994 129.988 18.526 129.911 16.832 Z" style=""/><path fill="#D0DBBD" opacity="1.000000" stroke="none" d="M 138.249 25.434 C 137.886 24.828 137.442 24.269 137.395 23.68 C 137.225 21.585 137.203 19.482 137.105 17.387 C 137.037 15.91 137.011 14.426 136.815 12.962 C 136.759 12.527 136.277 11.955 135.851 11.785 C 133.389 10.807 132.949 9.869 133.53 7.13 C 133.739 6.135 133.824 5.321 135.1 5.495 C 135.292 5.521 135.484 5.594 135.663 5.67 C 136.499 6.025 137.31 6.464 138.172 6.733 C 139.733 7.211 140.348 7.91 140.361 9.737 C 140.39 14.387 140.378 19.038 140.365 23.689 C 140.361 25.033 139.814 25.481 138.249 25.434 M 138.59 24.324 C 139.486 24.589 139.418 23.859 139.418 23.411 C 139.418 18.722 139.413 14.029 139.307 9.335 C 139.294 8.832 138.731 8.128 138.24 7.889 C 137.109 7.339 135.868 7.023 134.66 6.605 C 133.705 8.832 134.246 10.082 136.478 10.995 C 136.977 11.2 137.446 11.819 137.647 12.356 C 137.882 12.996 137.822 13.747 137.865 14.451 C 138.069 17.681 138.27 20.911 138.59 24.324 Z" style=""/><path fill="#B9C3A8" opacity="1.000000" stroke="none" d="M 136.913 3.238 C 138.142 3.072 138.479 3.605 138.385 4.655 C 138.287 5.79 137.468 5.521 136.832 5.466 C 136.576 5.44 136.171 5.056 136.154 4.809 C 136.107 4.224 135.795 3.422 136.913 3.238 M 137.655 4.894 C 137.664 4.557 137.737 4.198 137.651 3.887 C 137.626 3.785 137.131 3.691 136.951 3.789 C 136.747 3.895 136.661 4.22 136.525 4.446 C 136.862 4.629 137.195 4.813 137.655 4.894 Z" style=""/><path fill="#B9C3A8" opacity="1.000000" stroke="none" d="M 115.87 6.758 C 114.79 6.865 114.573 6.332 114.611 5.487 C 114.637 4.851 114.837 4.378 115.524 4.51 C 116.002 4.595 116.727 4.843 116.821 5.167 C 117.001 5.79 117.205 6.737 115.87 6.758 M 115.349 5.094 C 115.337 5.436 115.268 5.79 115.354 6.106 C 115.379 6.204 115.874 6.298 116.053 6.204 C 116.254 6.097 116.339 5.773 116.476 5.542 C 116.143 5.359 115.806 5.18 115.349 5.094 Z" style=""/><path fill="#023A01" opacity="1.000000" stroke="none" d="M 117.862 237.397 C 118.319 237.926 118.737 238.498 119.245 238.98 C 119.855 239.561 119.77 239.962 119.155 240.495 C 117.184 242.219 115.255 243.989 113.246 245.794 C 108.015 241.745 103.962 236.834 101.845 230.289 C 103.407 229.372 105.003 228.442 106.59 227.494 C 107.085 227.2 107.563 226.871 108.045 226.56 C 108.753 226.099 109.346 226.133 109.858 227.072 C 110.187 227.537 110.421 227.883 110.686 228.305 C 111.949 230.097 113.182 231.804 114.441 233.591 C 115.601 234.914 116.732 236.156 117.862 237.397 Z" style=""/><path fill="#023A01" opacity="1.000000" stroke="none" d="M 146.441 227.123 C 146.743 226.765 147.046 226.411 147.332 226.074 C 149.837 227.507 152.218 228.868 154.863 230.383 C 152.99 233.468 151.275 236.544 149.308 239.454 C 148.194 241.105 146.684 242.492 145.34 243.985 C 145.037 244.322 144.713 244.663 144.333 244.907 C 143.492 245.449 142.699 245.636 141.828 244.791 C 140.378 243.379 138.799 242.099 137.31 240.73 C 136.538 240.026 136.555 239.305 137.391 238.588 C 137.724 238.306 137.916 237.862 138.291 237.372 C 139.499 236.028 140.587 234.803 141.747 233.545 C 143.087 231.825 144.35 230.144 145.664 228.403 C 145.958 227.942 146.197 227.533 146.441 227.123 Z" style=""/><path fill="#F9A702" opacity="1.000000" stroke="none" d="M 141.675 233.579 C 140.587 234.803 139.499 236.028 138.334 237.308 C 135.697 235.981 133.124 234.633 130.59 233.207 C 129.344 232.508 128.324 231.569 128.166 229.884 C 127.684 232.585 125.431 233.297 123.516 234.359 C 121.698 235.362 119.868 236.339 117.952 237.363 C 116.732 236.156 115.601 234.914 114.517 233.553 C 116.164 232.469 117.726 231.441 119.377 230.575 C 120.179 230.153 121.131 229.867 122.035 229.811 C 123.913 229.696 125.414 228.975 126.49 227.465 C 126.959 226.799 127.258 226.005 127.642 225.387 C 127.829 226.475 127.305 227.575 128.004 228.454 C 128.162 228.454 128.32 228.454 128.474 228.45 C 128.521 227.392 128.572 226.334 128.678 225.331 C 129.783 228.369 131.772 229.982 135.031 229.786 C 135.275 229.769 135.565 229.781 135.757 229.901 C 137.737 231.113 139.703 232.35 141.675 233.579 Z" style=""/><path fill="#0D340B" opacity="1.000000" stroke="none" d="M 145.86 17.984 C 145.924 21.854 145.997 25.591 146.044 29.333 C 146.065 30.639 145.459 31.377 144.03 31.727 C 143.996 31.185 143.936 30.673 143.932 30.157 C 143.91 25.873 143.949 21.589 143.855 17.31 C 143.825 15.945 144.457 15.164 145.86 14.498 C 145.86 15.62 145.86 16.742 145.86 17.984 Z" style=""/><path fill="#F7A603" opacity="1.000000" stroke="none" d="M 110.656 228.224 C 110.421 227.883 110.187 227.537 109.939 227.115 C 111.215 226.236 112.559 225.502 113.775 224.597 C 114.359 224.158 114.705 223.394 115.183 222.699 C 116.437 220.331 117.222 217.92 117.385 215.113 C 117.641 213.385 117.871 211.853 118.123 210.219 C 118.635 208.674 119.13 207.236 119.723 205.803 C 120.09 205.803 120.358 205.79 120.619 205.871 C 119.582 207.898 119.228 209.975 119.002 212.147 C 118.72 214.852 118.033 217.51 117.662 220.211 C 117.367 222.37 116.335 224.004 114.637 225.276 C 113.318 226.266 111.983 227.243 110.656 228.224 Z" style=""/><path fill="#F7A603" opacity="1.000000" stroke="none" d="M 146.372 227.076 C 146.197 227.533 145.958 227.942 145.643 228.326 C 144.597 227.554 143.654 226.756 142.643 226.057 C 140.493 224.567 139.093 222.763 138.517 220.032 C 137.519 215.287 137.719 210.291 135.723 205.786 C 136.094 205.794 136.363 205.794 136.7 205.841 C 137.229 207.309 137.685 208.725 138.133 210.253 C 138.313 212.049 138.496 213.739 138.684 215.424 C 139.405 217.724 140.13 220.023 140.881 222.404 C 141.329 223.125 141.619 223.923 142.187 224.358 C 143.488 225.344 144.926 226.15 146.372 227.076 Z" style=""/><path fill="#073106" opacity="1.000000" stroke="none" d="M 103.829 23.923 C 100.224 24.734 100.864 24.538 100.292 21.675 C 99.9 19.682 99.511 17.681 99.238 15.667 C 99.145 14.967 99.247 14.157 99.524 13.513 C 99.921 12.595 99.823 11.977 99.051 11.341 C 97.621 10.159 97.331 8.427 98.189 6.511 C 99.341 7.509 100.48 8.495 101.615 9.485 C 102.4 10.172 102.187 11.059 101.662 11.605 C 99.763 13.598 100.39 15.701 101.154 17.86 C 101.414 18.59 101.649 19.328 101.965 20.279 C 103.595 15.663 105.139 11.285 106.705 6.839 C 109.491 8.623 110.14 10.556 108.83 12.681 C 108.629 12.553 108.407 12.45 108.233 12.297 C 106.957 11.14 106.816 11.157 106.146 12.71 C 105.246 14.805 104.341 16.896 103.462 18.999 C 103.262 19.486 103.168 20.011 102.933 20.821 C 105.498 20.233 107.823 19.738 110.123 19.136 C 110.473 19.046 110.814 18.534 110.972 18.146 C 111.697 16.341 112.418 14.524 113.003 12.672 C 113.156 12.181 112.994 11.418 112.687 10.991 C 111.778 9.745 111.603 7.876 112.427 6.541 C 113.476 7.526 114.526 8.516 115.584 9.502 C 116.19 10.065 116.369 10.722 115.844 11.383 C 113.707 14.063 112.666 17.284 111.403 20.386 C 110.861 21.722 110.046 22.473 108.646 22.754 C 107.063 23.07 105.502 23.509 103.829 23.923 Z" style=""/><path fill="#053004" opacity="1.000000" stroke="none" d="M 145.276 7.462 C 148.254 7.479 151.125 7.526 153.988 7.462 C 155.298 7.433 155.891 7.991 156.062 9.225 C 156.275 10.743 156.672 12.25 156.745 13.773 C 156.787 14.656 156.548 15.684 156.079 16.427 C 155.089 18.001 153.771 19.375 152.772 20.945 C 152.115 21.978 151.735 23.181 150.579 23.825 C 150.374 23.94 150.174 24.068 149.973 24.192 C 149.871 24.132 149.769 24.077 149.67 24.017 C 150.11 23.023 150.443 21.961 151.014 21.043 C 152.175 19.179 153.468 17.391 154.701 15.573 C 155.422 14.511 155.221 11.866 154.274 11.063 C 153.971 10.807 153.429 10.761 152.994 10.756 C 150.212 10.739 147.422 10.705 144.64 10.79 C 143.45 10.829 143.078 10.381 143.202 9.28 C 143.296 8.439 143.334 7.595 143.403 6.669 C 144.137 6.993 144.653 7.223 145.276 7.462 Z" style=""/><path fill="#022E02" opacity="1.000000" stroke="none" d="M 129.916 16.951 C 129.988 18.526 129.971 19.994 130.155 21.436 C 130.338 22.882 129.609 23.671 128.32 24.461 C 128.247 23.821 128.137 23.326 128.137 22.827 C 128.119 19.371 128.137 15.919 128.119 12.463 C 128.115 10.935 127.915 10.756 126.374 10.752 C 124.254 10.743 122.129 10.718 120.009 10.761 C 119.134 10.778 118.814 10.458 118.869 9.591 C 118.929 8.657 118.882 7.718 118.882 6.844 C 123.068 7.817 126.933 7.74 130.91 6.997 C 131.546 8.337 131.247 9.647 129.963 10.846 C 129.749 11.046 129.694 11.507 129.702 11.844 C 129.749 13.508 129.839 15.172 129.916 16.951 Z" style=""/><path fill="#053004" opacity="1.000000" stroke="none" d="M 138.53 24.23 C 138.27 20.911 138.069 17.681 137.865 14.451 C 137.822 13.747 137.882 12.996 137.647 12.356 C 137.446 11.819 136.977 11.2 136.478 10.995 C 134.246 10.082 133.705 8.832 134.66 6.605 C 135.868 7.023 137.109 7.339 138.24 7.889 C 138.731 8.128 139.294 8.832 139.307 9.335 C 139.413 14.029 139.418 18.722 139.418 23.411 C 139.418 23.859 139.486 24.589 138.53 24.23 Z" style=""/><path fill="#0D340B" opacity="1.000000" stroke="none" d="M 137.596 4.945 C 137.195 4.813 136.862 4.629 136.525 4.446 C 136.661 4.22 136.747 3.895 136.951 3.789 C 137.131 3.691 137.626 3.785 137.651 3.887 C 137.737 4.198 137.664 4.557 137.596 4.945 Z" style=""/><path fill="#0D340B" opacity="1.000000" stroke="none" d="M 115.409 5.047 C 115.806 5.18 116.143 5.359 116.476 5.542 C 116.339 5.773 116.254 6.097 116.053 6.204 C 115.874 6.298 115.379 6.204 115.354 6.106 C 115.268 5.79 115.337 5.436 115.409 5.047 Z" style=""/><path fill="#EFE8D3" opacity="1.000000" stroke="none" d="M 138.761 215.39 C 138.496 213.739 138.313 212.049 138.219 210.223 C 139.251 209.643 140.215 209.25 141.116 208.742 C 157.675 199.441 174.225 190.135 190.758 180.787 C 191.155 180.565 191.509 179.934 191.548 179.465 C 191.799 176.23 191.953 172.988 192.158 169.749 C 192.704 161.156 193.271 152.567 193.813 143.974 C 194.27 136.627 194.688 129.276 195.149 121.929 C 195.772 112.047 196.425 102.17 197.052 92.288 C 197.636 83.115 198.208 73.941 198.775 64.768 C 198.899 62.784 198.993 60.8 199.1 58.812 C 198.639 58.679 198.289 58.564 197.931 58.479 C 175.006 53.154 152.085 47.825 129.156 42.53 C 128.307 42.338 127.339 42.338 126.49 42.534 C 107.059 47.057 87.642 51.618 68.22 56.175 C 64.474 57.054 60.732 57.929 56.981 58.807 C 56.981 59.157 56.969 59.405 56.981 59.648 C 57.301 65.131 57.621 70.613 57.941 76.092 C 58.291 82.031 58.645 87.97 58.995 93.905 C 59.473 102.003 59.955 110.101 60.429 118.199 C 60.787 124.301 61.137 130.406 61.495 136.512 C 61.973 144.61 62.451 152.708 62.925 160.802 C 63.283 166.908 63.65 173.013 63.983 179.119 C 64.03 180.002 64.367 180.501 65.161 180.941 C 76.962 187.494 88.734 194.099 100.531 200.666 C 106.372 203.917 112.243 207.108 118.101 210.325 C 117.871 211.853 117.641 213.385 117.376 215.01 C 102.391 206.711 87.437 198.31 72.478 189.914 C 68.71 187.797 64.947 185.677 61.158 183.59 C 60.501 183.232 60.241 182.818 60.198 182.05 C 59.669 173.039 59.089 164.032 58.539 155.021 C 58.082 147.546 57.655 140.07 57.195 132.599 C 56.661 123.921 56.098 115.243 55.556 106.569 C 55.181 100.587 54.835 94.609 54.464 88.627 C 53.999 81.114 53.525 73.6 53.06 66.086 C 52.843 62.519 52.638 58.953 52.425 55.313 C 56.819 54.276 61.129 53.248 65.438 52.241 C 85.931 47.454 106.423 42.662 126.925 37.905 C 127.62 37.743 128.418 37.756 129.114 37.918 C 153.6 43.584 178.082 49.28 202.569 54.976 C 202.85 55.04 203.123 55.134 203.465 55.232 C 203.482 55.514 203.533 55.795 203.516 56.068 C 203.162 61.884 202.803 67.695 202.441 73.506 C 202.061 79.526 201.673 85.547 201.293 91.567 C 200.815 99.204 200.337 106.846 199.863 114.483 C 199.501 120.337 199.151 126.195 198.788 132.049 C 198.319 139.605 197.841 147.162 197.372 154.718 C 197.005 160.572 196.651 166.426 196.292 172.279 C 196.096 175.518 195.895 178.761 195.729 181.999 C 195.695 182.75 195.383 183.172 194.726 183.543 C 177.387 193.306 160.055 203.081 142.733 212.877 C 141.397 213.632 140.139 214.524 138.761 215.39 Z" style=""/><path fill="#537049" opacity="1.000000" stroke="none" d="M 75.695 196.727 C 75.674 195.584 76.079 194.918 77.235 195.068 C 78.212 195.191 78.635 195.84 78.396 196.745 C 78.289 197.146 77.867 197.641 77.491 197.751 C 76.702 197.99 76.015 197.692 75.695 196.727 Z" style=""/><path fill="#5D7651" opacity="1.000000" stroke="none" d="M 102.396 209.826 C 102.34 210.317 102.285 210.714 102.204 211.298 C 102.874 210.884 103.386 210.564 103.902 210.249 C 104.017 210.338 104.132 210.432 104.247 210.522 C 103.889 211.255 103.526 211.989 103.002 213.06 C 102.848 212.446 102.784 212.186 102.703 211.883 C 102.438 211.93 102.165 211.977 101.815 212.032 C 101.734 211.695 101.658 211.388 101.559 210.995 C 101.312 211.153 101.077 211.294 100.847 211.439 C 100.787 211.388 100.723 211.341 100.663 211.29 C 100.983 210.731 101.269 210.15 101.645 209.634 C 101.717 209.536 102.135 209.694 102.396 209.826 M 103.266 211.426 C 103.266 211.426 103.258 211.409 103.266 211.426 Z" style=""/><path fill="#5A744F" opacity="1.000000" stroke="none" d="M 94.127 207.59 C 93.905 207.245 93.687 206.895 93.406 206.443 C 93.278 206.477 93.026 206.545 92.595 206.66 C 92.898 205.948 93.158 205.338 93.414 204.638 C 93.41 204.548 93.406 204.553 93.406 204.553 C 93.948 204.826 94.494 205.099 95.036 205.372 C 94.818 205.751 94.579 206.118 94.396 206.515 C 94.281 206.763 94.255 207.044 94.174 207.428 C 94.161 207.543 94.127 207.59 94.127 207.59 Z" style=""/><path fill="#5D7651" opacity="1.000000" stroke="none" d="M 98.782 209.707 C 98.227 210.206 97.984 209.993 97.929 209.438 C 97.882 209.003 97.882 208.559 97.852 207.885 C 97.442 208.418 97.161 208.785 96.875 209.152 C 96.777 209.088 96.674 209.024 96.576 208.96 C 96.99 208.247 97.404 207.535 97.822 206.822 C 97.954 206.844 98.086 206.861 98.223 206.882 C 98.308 207.573 98.402 208.265 98.509 209.097 C 98.816 208.649 99.072 208.269 99.332 207.893 C 99.422 207.932 99.511 207.966 99.601 208.004 C 99.345 208.546 99.093 209.092 98.782 209.707 Z" style=""/><path fill="#5D7651" opacity="1.000000" stroke="none" d="M 108.39 215.543 C 108.86 214.899 109.325 214.255 109.961 213.376 C 110.118 214.281 110.225 214.899 110.336 215.518 C 110.426 215.578 110.515 215.637 110.601 215.697 C 110.822 215.296 111.04 214.895 111.262 214.494 C 111.386 214.596 111.509 214.699 111.633 214.805 C 111.223 215.492 110.81 216.179 110.396 216.866 C 110.263 216.832 110.135 216.802 110.007 216.768 C 109.926 216.166 109.85 215.561 109.781 215.049 C 109.295 215.279 108.864 215.484 108.412 215.616 C 108.395 215.539 108.39 215.543 108.39 215.543 Z" style=""/><path fill="#5A744F" opacity="1.000000" stroke="none" d="M 105.894 214.067 C 106.735 213.649 107.575 213.227 108.544 212.74 C 108.48 213.717 108.429 214.519 108.382 215.433 C 108.39 215.543 108.395 215.539 108.395 215.539 C 107.81 214.729 106.923 214.558 105.958 214.293 C 105.894 214.182 105.894 214.067 105.894 214.067 Z" style=""/><path fill="#5A744F" opacity="1.000000" stroke="none" d="M 82.475 200.759 C 82.317 200.687 82.236 200.593 82.155 200.499 C 82.778 199.991 83.409 199.484 84.032 198.976 C 84.16 199.031 84.284 199.087 84.412 199.142 C 84.314 199.974 84.22 200.811 84.147 201.468 C 83.546 201.19 83.051 200.964 82.475 200.759 Z" style=""/><path fill="#5A744F" opacity="1.000000" stroke="none" d="M 94.174 207.522 C 94.908 206.997 95.625 206.498 96.341 205.999 C 96.448 206.054 96.555 206.106 96.661 206.157 C 96.559 206.985 96.457 207.812 96.354 208.64 C 95.97 207.428 95.074 207.646 94.191 207.646 C 94.127 207.59 94.161 207.543 94.174 207.522 Z" style=""/><path fill="#5A744F" opacity="1.000000" stroke="none" d="M 86.733 200.883 C 86.174 201.463 85.615 202.044 85.06 202.624 C 84.919 202.53 84.783 202.436 84.642 202.342 C 84.821 201.451 85.005 200.559 85.184 199.667 C 85.299 199.684 85.414 199.701 85.53 199.718 C 85.504 200.247 85.478 200.781 85.449 201.434 C 85.862 201.178 86.165 200.99 86.575 200.815 C 86.682 200.819 86.733 200.883 86.733 200.883 Z" style=""/><path fill="#5A744F" opacity="1.000000" stroke="none" d="M 79.236 198.997 C 79.509 198.976 79.778 198.955 79.838 198.95 C 79.898 198.195 79.945 197.564 79.996 196.932 C 80.418 197.013 80.845 197.09 81.271 197.171 C 81.246 197.282 81.225 197.397 81.203 197.508 C 80.905 197.478 80.61 197.453 80.26 197.423 C 80.384 198.029 80.491 198.562 80.602 199.095 C 80.149 199.142 79.693 199.189 79.211 199.142 C 79.185 199.049 79.236 198.997 79.236 198.997 Z" style=""/><path fill="#5D7651" opacity="1.000000" stroke="none" d="M 88.87 204.599 C 87.945 204.51 87.714 204.062 88.201 203.268 C 88.503 202.769 88.832 202.283 89.348 201.907 C 89.348 202.428 89.348 202.944 89.348 203.776 C 89.327 203.806 87.821 203.17 88.887 204.467 C 88.913 204.557 88.87 204.599 88.87 204.599 Z" style=""/><path fill="#5A744F" opacity="1.000000" stroke="none" d="M 82.978 198.566 C 82.389 199.1 81.877 199.629 81.186 200.337 C 81.485 199.36 81.724 198.588 82.014 197.653 C 82.317 197.845 82.735 198.106 83.145 198.374 C 83.162 198.387 83.166 198.451 83.149 198.481 C 83.127 198.511 83.085 198.528 82.978 198.566 Z" style=""/><path fill="#5A744F" opacity="1.000000" stroke="none" d="M 90.944 205.589 C 90.539 205.559 90.116 205.453 89.506 205.295 C 90.069 204.356 90.487 203.652 90.987 202.82 C 91.426 203.883 89.694 204.625 90.944 205.589 Z" style=""/><path fill="#5A744F" opacity="1.000000" stroke="none" d="M 93.41 204.548 C 92.894 205.124 92.378 205.705 91.759 206.396 C 91.716 206.259 91.529 205.978 91.601 205.815 C 91.849 205.261 92.151 204.715 92.527 204.241 C 92.612 204.134 93.082 204.335 93.393 204.471 C 93.406 204.553 93.41 204.548 93.41 204.548 Z" style=""/><path fill="#5D7651" opacity="1.000000" stroke="none" d="M 105.084 213.858 C 105.05 213.534 104.896 213.167 104.998 212.898 C 105.182 212.429 105.523 212.023 105.796 211.588 C 105.894 211.639 105.993 211.686 106.091 211.738 C 105.801 212.352 105.506 212.962 105.178 213.687 C 105.143 213.798 105.084 213.858 105.084 213.858 Z" style=""/><path fill="#5A744F" opacity="1.000000" stroke="none" d="M 79.159 199.07 C 79.04 198.976 78.95 198.852 78.857 198.733 C 78.967 198.78 79.078 198.831 79.211 198.938 C 79.236 198.997 79.185 199.049 79.159 199.07 Z" style=""/><path fill="#5D7651" opacity="1.000000" stroke="none" d="M 90.057 202.487 C 90.138 202.462 90.223 202.487 90.313 202.513 C 90.231 202.522 90.15 202.53 90.057 202.487 Z" style=""/><path fill="#5D7651" opacity="1.000000" stroke="none" d="M 105.822 214.046 C 105.894 214.067 105.894 214.182 105.899 214.242 C 105.749 214.268 105.604 214.229 105.429 214.114 C 105.404 214.033 105.455 213.978 105.455 213.978 C 105.553 213.995 105.651 214.007 105.822 214.046 Z" style=""/><path fill="#5A744F" opacity="1.000000" stroke="none" d="M 86.656 200.789 C 86.75 200.738 86.869 200.717 86.989 200.695 C 86.938 200.747 86.886 200.794 86.784 200.862 C 86.733 200.883 86.682 200.819 86.656 200.789 Z" style=""/><path fill="#637A57" opacity="1.000000" stroke="none" d="M 176.725 199.906 C 176.742 199.932 176.674 199.94 176.674 199.94 C 176.674 199.94 176.704 199.885 176.725 199.906 Z" style=""/><path fill="#5D7651" opacity="1.000000" stroke="none" d="M 105.169 213.773 C 105.263 213.786 105.327 213.833 105.417 213.935 C 105.455 213.978 105.404 214.033 105.378 214.059 C 105.284 214.046 105.22 213.999 105.122 213.901 C 105.084 213.858 105.143 213.798 105.169 213.773 Z" style=""/><path fill="#5D7651" opacity="1.000000" stroke="none" d="M 88.93 204.535 C 88.973 204.565 88.994 204.621 89.015 204.672 C 88.986 204.668 88.951 204.663 88.896 204.629 C 88.87 204.599 88.913 204.557 88.93 204.535 Z" style=""/><path fill="#637A57" opacity="1.000000" stroke="none" d="M 158.592 207.04 C 158.613 207.031 158.643 207.036 158.643 207.049 C 158.618 207.066 158.601 207.049 158.592 207.04 Z" style=""/><path fill="#FEC928" opacity="1.000000" stroke="none" d="M 110.686 228.305 C 111.983 227.243 113.318 226.266 114.637 225.276 C 116.335 224.004 117.367 222.37 117.662 220.211 C 118.033 217.51 118.72 214.852 119.002 212.147 C 119.228 209.975 119.582 207.898 120.661 205.786 C 121.024 204.237 121.357 202.871 121.643 201.493 C 122.321 198.204 122.982 194.91 123.635 191.612 C 123.819 190.69 124.284 190.08 125.282 190.059 C 126.165 190.037 126.959 190.413 127.031 191.313 C 127.159 192.887 127.066 194.479 127.066 196.126 C 124.663 194.944 123.43 195.584 122.953 198.054 C 122.138 202.283 121.267 206.502 120.461 210.735 C 120.341 211.362 120.444 212.032 120.444 212.685 C 120.623 212.706 120.802 212.727 120.986 212.749 C 121.161 212.083 121.353 211.413 121.506 210.739 C 122.103 208.158 122.731 205.577 123.255 202.982 C 123.575 201.395 123.708 199.774 123.972 198.178 C 124.126 197.239 124.676 196.693 125.705 196.783 C 126.647 196.868 127.13 197.406 127.155 198.327 C 127.185 199.646 127.211 200.969 127.164 202.287 C 127.113 203.571 126.818 204.86 126.895 206.131 C 127.031 208.401 127.518 210.65 127.586 212.919 C 127.706 217.033 127.629 221.154 127.633 225.271 C 127.258 226.005 126.959 226.799 126.49 227.465 C 125.414 228.975 123.913 229.696 122.035 229.811 C 121.131 229.867 120.179 230.153 119.377 230.575 C 117.726 231.441 116.164 232.469 114.492 233.472 C 113.182 231.804 111.949 230.097 110.686 228.305 Z" style=""/><path fill="#FEC928" opacity="1.000000" stroke="none" d="M 135.625 205.777 C 137.719 210.291 137.519 215.287 138.517 220.032 C 139.093 222.763 140.493 224.567 142.643 226.057 C 143.654 226.756 144.597 227.554 145.591 228.382 C 144.35 230.144 143.087 231.825 141.747 233.545 C 139.703 232.35 137.737 231.113 135.757 229.901 C 135.565 229.781 135.275 229.769 135.031 229.786 C 131.772 229.982 129.783 228.369 128.67 225.216 C 128.597 223.876 128.567 222.711 128.593 221.547 C 128.666 218.185 128.491 214.788 128.917 211.473 C 129.301 208.478 129.481 205.551 129.126 202.56 C 128.969 201.259 129.062 199.923 129.067 198.605 C 129.071 197.564 129.463 196.826 130.641 196.783 C 131.938 196.736 132.22 197.628 132.361 198.639 C 132.561 200.034 132.676 201.446 132.954 202.829 C 133.568 205.871 134.251 208.9 134.933 211.93 C 135.002 212.228 135.279 212.484 135.458 212.757 C 135.595 212.719 135.731 212.681 135.868 212.642 C 135.825 211.938 135.872 211.217 135.723 210.534 C 135.407 209.122 134.895 207.744 134.63 206.323 C 134.076 203.349 133.662 200.35 133.124 197.376 C 132.838 195.776 131.541 195.132 130.031 195.729 C 129.771 195.831 129.519 195.964 129.131 196.147 C 129.131 194.654 129.122 193.254 129.131 191.855 C 129.139 190.767 129.707 190.14 130.795 190.067 C 131.844 189.995 132.416 190.566 132.604 191.561 C 132.86 192.905 133.077 194.257 133.363 195.597 C 134.101 198.993 134.869 202.385 135.625 205.777 Z" style=""/><path fill="#B76219" opacity="1.000000" stroke="none" d="M 135.723 205.786 C 134.869 202.385 134.101 198.993 133.363 195.597 C 133.077 194.257 132.86 192.905 132.604 191.561 C 132.416 190.566 131.844 189.995 130.795 190.067 C 129.707 190.14 129.139 190.767 129.131 191.855 C 129.122 193.254 129.131 194.654 129.131 196.147 C 129.519 195.964 129.771 195.831 130.031 195.729 C 131.541 195.132 132.838 195.776 133.124 197.376 C 133.662 200.35 134.076 203.349 134.63 206.323 C 134.895 207.744 135.407 209.122 135.723 210.534 C 135.872 211.217 135.825 211.938 135.868 212.642 C 135.731 212.681 135.595 212.719 135.458 212.757 C 135.279 212.484 135.002 212.228 134.933 211.93 C 134.251 208.9 133.568 205.871 132.954 202.829 C 132.676 201.446 132.561 200.034 132.361 198.639 C 132.22 197.628 131.938 196.736 130.641 196.783 C 129.463 196.826 129.071 197.564 129.067 198.605 C 129.062 199.923 128.969 201.259 129.126 202.56 C 129.481 205.551 129.301 208.478 128.917 211.473 C 128.491 214.788 128.666 218.185 128.593 221.547 C 128.567 222.711 128.597 223.876 128.61 225.156 C 128.572 226.334 128.521 227.392 128.474 228.45 C 128.32 228.454 128.162 228.454 128.004 228.454 C 127.305 227.575 127.829 226.475 127.642 225.387 C 127.629 221.154 127.706 217.033 127.586 212.919 C 127.518 210.65 127.031 208.401 126.895 206.131 C 126.818 204.86 127.113 203.571 127.164 202.287 C 127.211 200.969 127.185 199.646 127.155 198.327 C 127.13 197.406 126.647 196.868 125.705 196.783 C 124.676 196.693 124.126 197.239 123.972 198.178 C 123.708 199.774 123.575 201.395 123.255 202.982 C 122.731 205.577 122.103 208.158 121.506 210.739 C 121.353 211.413 121.161 212.083 120.986 212.749 C 120.802 212.727 120.623 212.706 120.444 212.685 C 120.444 212.032 120.341 211.362 120.461 210.735 C 121.267 206.502 122.138 202.283 122.953 198.054 C 123.43 195.584 124.663 194.944 127.066 196.126 C 127.066 194.479 127.159 192.887 127.031 191.313 C 126.959 190.413 126.165 190.037 125.282 190.059 C 124.284 190.08 123.819 190.69 123.635 191.612 C 122.982 194.91 122.321 198.204 121.643 201.493 C 121.357 202.871 121.024 204.237 120.67 205.696 C 120.358 205.79 120.09 205.803 119.735 205.709 C 120.678 200.414 121.707 195.221 122.812 190.02 C 123.217 189.696 123.55 189.385 123.981 189.056 C 124.975 188.988 125.867 188.937 126.788 188.89 C 126.869 187.575 126.451 186.884 125.03 186.338 C 124.57 186.313 124.215 186.304 123.921 186.219 C 125.683 185.399 127.095 185.775 128.141 187.354 C 129.459 185.634 130.752 185.335 132.284 186.3 C 131.823 186.321 131.469 186.338 131.029 186.364 C 129.711 186.897 129.37 187.887 129.395 188.838 C 130.479 188.924 131.426 189.001 132.407 189.141 C 132.804 189.483 133.158 189.756 133.551 190.14 C 133.602 190.874 133.525 191.518 133.653 192.119 C 134.622 196.681 135.633 201.237 136.627 205.794 C 136.363 205.794 136.094 205.794 135.723 205.786 Z" style=""/><path fill="#235A20" opacity="1.000000" stroke="none" d="M 136.7 205.841 C 135.633 201.237 134.622 196.681 133.653 192.119 C 133.525 191.518 133.602 190.874 133.551 190.063 C 133.495 189.777 133.478 189.675 133.483 189.525 C 133.5 189.406 133.47 189.35 133.402 189.197 C 133.239 188.092 133.764 186.85 132.39 186.295 C 130.752 185.335 129.459 185.634 128.141 187.354 C 127.095 185.775 125.683 185.399 123.831 186.249 C 122.47 187.068 123.038 188.297 122.803 189.342 C 122.735 189.449 122.743 189.513 122.769 189.645 C 122.743 189.824 122.739 189.926 122.735 190.029 C 121.707 195.221 120.678 200.414 119.637 205.7 C 119.13 207.236 118.635 208.674 118.123 210.219 C 112.243 207.108 106.372 203.917 100.531 200.666 C 88.734 194.099 76.962 187.494 65.161 180.941 C 64.367 180.501 64.03 180.002 63.983 179.119 C 63.65 173.013 63.283 166.908 62.925 160.802 C 62.451 152.708 61.973 144.61 61.495 136.512 C 61.137 130.406 60.787 124.301 60.429 118.199 C 59.955 110.101 59.473 102.003 58.995 93.905 C 58.645 87.97 58.291 82.031 57.941 76.092 C 57.621 70.613 57.301 65.131 56.981 59.648 C 56.969 59.405 56.981 59.157 56.981 58.807 C 60.732 57.929 64.474 57.054 68.22 56.175 C 87.642 51.618 107.059 47.057 126.49 42.534 C 127.339 42.338 128.307 42.338 129.156 42.53 C 152.085 47.825 175.006 53.154 197.931 58.479 C 198.289 58.564 198.639 58.679 199.1 58.812 C 198.993 60.8 198.899 62.784 198.775 64.768 C 198.208 73.941 197.636 83.115 197.052 92.288 C 196.425 102.17 195.772 112.047 195.149 121.929 C 194.688 129.276 194.27 136.627 193.813 143.974 C 193.271 152.567 192.704 161.156 192.158 169.749 C 191.953 172.988 191.799 176.23 191.548 179.465 C 191.509 179.934 191.155 180.565 190.758 180.787 C 174.225 190.135 157.675 199.441 141.116 208.742 C 140.215 209.25 139.251 209.643 138.227 210.116 C 137.685 208.725 137.229 207.309 136.7 205.841 M 114.325 102.746 C 114.317 102.78 114.295 102.818 114.304 102.848 C 114.317 102.912 114.342 102.976 114.278 103.083 C 114.244 103.147 114.253 103.206 114.15 103.326 C 113.707 102.387 113.378 101.363 112.794 100.523 C 111.492 98.658 109.06 98.069 107.004 98.978 C 104.939 99.887 103.748 102.268 104.209 104.563 C 104.627 106.65 106.27 107.827 108.813 107.874 C 108.915 107.874 109.018 107.964 109.18 108.041 C 108.706 111.104 106.372 112.721 104.196 114.522 C 104.649 115.2 105.079 115.849 105.6 116.634 C 106.726 115.81 107.831 115.081 108.847 114.24 C 111.808 111.799 113.86 108.83 114.095 104.849 C 114.103 104.695 114.287 104.546 114.377 104.585 C 114.974 107.11 116.77 107.972 119.151 107.938 C 119.134 109.935 118.844 110.327 114.342 114.564 C 114.786 115.217 115.234 115.883 115.703 116.574 C 119.27 114.313 122.377 111.791 123.669 107.686 C 124.429 105.276 124.51 102.852 123.017 100.634 C 121.877 98.944 119.893 98.24 117.858 98.718 C 116.062 99.14 114.645 100.753 114.325 102.746 M 177.327 125.312 C 177.545 128.905 177.766 132.497 177.993 136.128 C 180.211 135.531 181.265 134.17 181.265 131.981 C 181.278 124.612 181.274 117.248 181.269 109.879 C 181.269 109.423 181.231 108.962 181.184 108.51 C 180.932 106.176 180.48 105.754 178.138 105.673 C 177.681 105.66 177.22 105.664 176.764 105.664 C 170.935 105.664 165.107 105.647 159.279 105.673 C 157.683 105.681 156.284 105.412 155.345 103.757 C 154.871 104.892 154.487 106.01 154.304 107.162 C 154.155 108.096 154.283 109.073 154.227 110.029 C 154.172 111.087 154.483 111.868 155.52 112.329 C 156.578 112.798 156.86 113.638 156.348 114.684 C 155.324 116.774 155.26 118.997 155.362 121.259 C 155.435 122.795 155.388 124.339 155.422 125.879 C 155.439 126.793 155.046 127.369 154.18 127.663 C 153.084 128.034 152 128.461 150.895 128.815 C 149.854 129.152 149.265 129.894 149.231 130.918 C 149.184 132.322 149.257 133.743 149.406 135.142 C 149.487 135.902 150.016 136.277 150.865 135.979 C 153.958 134.891 157.069 133.858 160.149 132.74 C 161.668 132.186 161.971 131.699 161.634 130.061 C 161.263 128.239 160.738 126.443 160.205 124.659 C 159.232 121.408 158.43 118.148 159.415 114.752 C 159.923 113.003 160.439 112.627 162.278 112.623 C 165.982 112.619 169.685 112.623 173.393 112.623 C 175.979 112.623 176.388 113.003 176.593 115.622 C 176.841 118.771 177.071 121.924 177.327 125.312 M 91.849 150.63 C 92.207 150.639 92.676 150.793 92.907 150.626 C 93.948 149.867 94.921 149.018 95.915 148.194 C 96.849 147.418 97.242 146.423 97.114 145.207 C 97.015 144.256 96.951 143.3 96.909 142.345 C 96.58 134.694 96.239 127.049 95.949 119.398 C 95.863 117.205 95.936 115.008 95.936 112.734 C 98.244 111.817 98.249 111.817 98.278 109.235 C 98.291 108.237 98.389 107.226 98.283 106.24 C 98.197 105.434 97.873 104.649 97.579 103.582 C 95.13 105.553 92.604 105.711 89.975 105.634 C 86.857 105.54 83.733 105.579 80.61 105.621 C 78.43 105.651 76.25 105.775 74.586 103.411 C 74.197 104.269 73.749 104.823 73.711 105.408 C 73.591 107.273 73.617 109.15 73.604 111.019 C 73.596 111.97 74.095 112.482 75.046 112.529 C 75.712 112.563 76.373 112.606 77.043 112.606 C 81.122 112.614 85.197 112.606 89.276 112.614 C 91.23 112.619 91.435 112.836 91.443 114.748 C 91.503 125.359 91.558 135.974 91.627 146.586 C 91.635 147.874 91.716 149.163 91.849 150.63 M 144.098 126.251 C 144.094 121.634 144.085 117.018 144.094 112.401 C 144.098 109.525 142.955 107.503 140.143 106.432 C 138.103 105.655 135.987 104.909 134.639 102.967 C 134.426 102.665 134.003 102.511 133.679 102.289 C 133.47 102.665 133.107 103.031 133.073 103.424 C 132.962 104.832 133.073 106.261 132.894 107.652 C 132.544 110.374 133.495 112.158 136.218 112.883 C 136.576 112.977 136.887 113.216 137.237 113.348 C 138.85 113.954 139.533 115.2 139.601 116.826 C 139.729 119.735 139.836 122.645 139.895 125.551 C 139.938 127.735 139.721 127.906 137.532 128.166 C 135.019 128.461 132.51 128.798 129.997 129.122 C 129.003 129.246 128.397 129.749 128.354 130.812 C 128.307 132.139 128.175 133.466 128.205 134.793 C 128.243 136.666 128.576 137.011 130.453 136.841 C 134.135 136.499 137.805 136.043 141.478 135.616 C 143.548 135.373 144.043 134.844 144.085 132.74 C 144.128 130.662 144.098 128.58 144.098 126.251 M 87.381 71.893 C 87.799 72.051 88.205 72.294 88.636 72.341 C 89.638 72.457 89.843 72.977 89.643 73.873 C 89.399 74.965 89.216 76.075 89.024 77.175 C 88.503 80.149 87.991 83.123 87.462 86.195 C 89.161 86.195 90.718 86.195 92.39 86.195 C 93.15 81.754 93.909 77.308 94.66 72.9 C 96.691 72.653 97.545 72.917 97.609 74.022 C 97.728 76.164 97.643 78.315 97.643 80.614 C 96.444 80.614 95.347 80.614 94.281 80.614 C 94.281 82.534 94.281 84.301 94.281 86.093 C 97.033 86.093 99.686 86.093 102.251 86.093 C 102.251 81.374 102.537 76.668 102.153 72.017 C 101.884 68.706 99.593 67.255 96.23 67.209 C 93.589 67.166 90.953 67.059 88.111 66.974 C 87.876 68.382 87.599 70.046 87.381 71.893 M 182.195 67.213 C 179.52 67.213 176.841 67.213 174.199 67.213 C 174.199 69.205 174.199 70.967 174.199 72.841 C 177.186 72.841 180.079 72.841 183.01 72.841 C 183.202 74.889 183.13 76.753 181.999 78.451 C 181.265 79.556 180.557 80.687 179.93 81.852 C 179.729 82.219 179.639 82.85 179.827 83.179 C 180.604 84.54 181.504 85.833 182.293 87.044 C 187.831 81.455 188.459 74.586 187.605 67.213 C 185.92 67.213 184.183 67.213 182.195 67.213 M 155.972 67.213 C 154.078 67.213 152.183 67.213 150.178 67.213 C 150.178 68.77 150.238 70.14 150.157 71.501 C 150.101 72.512 150.379 72.909 151.458 72.849 C 153.139 72.759 154.829 72.828 156.638 72.828 C 156.638 77.427 156.638 81.856 156.638 86.374 C 158.246 86.242 159.718 86.118 161.34 85.986 C 161.34 81.566 161.34 77.227 161.34 72.823 C 161.907 72.823 162.334 72.883 162.735 72.806 C 163.004 72.751 163.43 72.529 163.452 72.346 C 163.639 70.673 163.75 68.996 163.891 67.213 C 161.203 67.213 158.711 67.213 155.972 67.213 M 132.924 70.289 C 132.275 68.736 131.234 67.452 129.51 67.366 C 126.379 67.213 123.234 67.324 119.962 67.324 C 119.962 68.983 119.923 70.596 120.004 72.205 C 120.017 72.427 120.61 72.789 120.939 72.798 C 123.017 72.853 125.094 72.875 127.172 72.811 C 128.324 72.772 128.717 73.229 128.704 74.342 C 128.666 77.709 128.691 81.075 128.691 84.442 C 128.691 85.052 128.691 85.662 128.691 86.362 C 130.022 86.268 131.174 86.118 132.326 86.123 C 133.261 86.131 133.53 85.786 133.517 84.877 C 133.474 81.178 133.534 77.478 133.474 73.779 C 133.457 72.674 133.171 71.569 132.924 70.289 M 84.254 86.131 C 84.693 86.131 85.133 86.131 85.572 86.131 C 85.572 79.748 85.572 73.527 85.572 67.281 C 83.004 67.281 80.529 67.281 78.02 67.281 C 78.02 69.146 78.02 70.942 78.02 72.841 C 79.01 72.841 79.91 72.841 80.845 72.841 C 80.845 75.452 80.845 77.965 80.845 80.585 C 79.522 80.585 78.285 80.585 76.996 80.585 C 76.996 82.462 76.996 84.228 76.996 86.131 C 79.373 86.131 81.694 86.131 84.254 86.131 M 105.98 84.258 C 105.98 84.864 105.98 85.466 105.98 86.076 C 107.674 86.076 109.158 86.076 110.805 86.076 C 110.805 85.581 110.805 85.137 110.805 84.693 C 110.805 81.532 110.805 78.374 110.805 75.213 C 110.805 73.19 110.814 73.22 112.666 72.478 C 113.033 72.333 113.549 71.855 113.532 71.556 C 113.438 69.999 113.199 68.45 112.99 66.739 C 109.875 67.785 106.825 67.716 103.735 66.761 C 103.599 68.075 103.497 69.184 103.364 70.293 C 103.13 72.273 103.108 72.324 105.015 72.777 C 105.796 72.96 106.001 73.297 105.993 74.044 C 105.958 77.367 105.98 80.695 105.98 84.258 M 134.801 72.316 C 135.074 72.41 135.343 72.563 135.625 72.593 C 136.977 72.738 137.271 73.489 137.233 74.778 C 137.131 78.101 137.195 81.429 137.199 84.757 C 137.203 85.197 137.237 85.636 137.259 86.076 C 138.893 86.076 140.382 86.076 142.025 86.076 C 142.025 85.577 142.025 85.133 142.025 84.685 C 142.025 81.485 142.101 78.276 141.99 75.081 C 141.939 73.638 142.148 72.695 143.782 72.499 C 144.154 72.452 144.768 71.936 144.755 71.667 C 144.666 70.067 144.418 68.476 144.205 66.692 C 141.077 67.861 138.031 67.652 134.989 66.795 C 134.865 67.686 134.724 68.378 134.686 69.077 C 134.626 70.118 134.643 71.164 134.801 72.316 M 167.305 82.044 C 167.305 83.473 167.305 84.907 167.305 86.387 C 169.024 86.238 170.5 86.11 171.977 85.982 C 171.977 79.684 171.977 73.515 171.977 67.277 C 169.549 67.277 167.202 67.277 164.787 67.277 C 164.787 69.133 164.787 70.925 164.787 72.772 C 165.658 72.811 166.426 72.845 167.305 72.887 C 167.305 75.908 167.305 78.852 167.305 82.044 M 99.614 165.602 C 99.55 164.727 99.486 163.853 99.439 163.234 C 95.241 163.908 91.324 163.921 87.275 163.247 C 86.626 164.425 86.784 165.739 87.795 167.023 C 87.983 167.266 88.004 167.71 87.974 168.051 C 87.714 171.162 87.462 174.268 87.13 177.37 C 86.997 178.607 87.501 179.319 88.811 179.874 C 88.93 178.931 89.071 178.091 89.143 177.246 C 89.399 174.306 89.643 171.362 89.865 168.422 C 89.946 167.377 90.47 166.967 91.494 167.01 C 92.659 167.053 93.828 167.07 94.989 167.002 C 96.158 166.938 96.653 167.458 96.734 168.58 C 96.943 171.482 97.182 174.383 97.425 177.284 C 97.498 178.125 97.634 178.957 97.754 179.887 C 99.093 179.311 99.588 178.573 99.439 177.335 C 99.145 174.857 98.906 172.373 98.714 169.886 C 98.615 168.636 98.129 167.258 99.486 166.289 C 99.588 166.217 99.571 165.978 99.614 165.602 M 105.237 164.126 C 104.811 163.814 104.384 163.503 103.996 163.217 C 103.185 164.463 103.454 166.63 104.768 167.642 C 105.519 168.226 105.843 168.841 105.54 169.783 C 105.195 170.85 105.434 171.785 106.176 172.672 C 107.034 173.705 107.763 174.848 108.693 176.141 C 108.002 176.235 107.605 176.303 107.209 176.346 C 105.929 176.486 104.64 176.572 103.369 176.785 C 103.027 176.845 102.532 177.242 102.485 177.545 C 102.357 178.338 102.443 179.17 102.443 180.143 C 104.828 179.93 107.012 179.725 109.197 179.537 C 110.093 179.46 110.976 179.371 111.343 178.364 C 111.714 177.353 111.872 176.38 111.053 175.454 C 110.477 174.801 109.969 174.08 109.491 173.35 C 109.303 173.069 109.094 172.57 109.218 172.352 C 110.076 170.816 111.019 169.327 111.945 167.799 C 112.742 168.375 113.301 168.777 113.929 169.229 C 114.812 165.973 114.342 164.57 112.098 163.58 C 110.822 166.293 109.538 169.011 108.25 171.738 C 106.603 170.761 106.189 170.001 106.859 168.781 C 108.224 166.293 107.61 166.366 106.005 164.847 C 105.792 164.642 105.579 164.45 105.237 164.126 M 127.872 160.222 C 127.872 161.805 127.863 163.383 127.872 164.962 C 127.885 166.579 128.205 166.916 129.856 166.938 C 131.601 166.963 133.35 166.925 135.095 166.967 C 135.518 166.976 136.064 167.049 136.337 167.317 C 137.263 168.226 137.357 170.505 136.61 171.61 C 135.445 173.329 134.221 175.01 133.133 176.777 C 132.595 177.647 132.297 178.662 131.891 179.614 C 132.002 179.678 132.117 179.742 132.233 179.806 C 132.399 179.708 132.578 179.622 132.736 179.511 C 133.705 178.837 134.251 177.899 134.818 176.858 C 135.637 175.343 136.841 174.025 137.929 172.663 C 138.714 171.686 138.999 170.671 138.705 169.421 C 138.411 168.175 138.278 166.886 138.086 165.615 C 137.852 164.041 137.519 163.716 135.906 163.691 C 134.076 163.661 132.245 163.618 130.419 163.703 C 129.178 163.759 128.87 163.285 128.943 162.103 C 129.079 159.782 129.092 157.453 129.088 155.127 C 129.084 154.633 128.892 154.061 128.602 153.664 C 128.068 152.943 127.398 152.324 126.707 151.578 C 126.093 152.951 125.73 154.569 126.626 155.503 C 127.962 156.898 127.863 158.379 127.872 160.222 M 71.356 79.872 C 72.836 79.782 74.317 79.697 75.827 79.607 C 75.827 75.418 75.827 71.373 75.827 67.273 C 73.353 67.273 70.963 67.273 68.514 67.273 C 68.514 69.133 68.514 70.929 68.514 72.87 C 69.397 72.87 70.204 72.87 71.172 72.87 C 71.172 75.247 71.172 77.483 71.356 79.872 M 163.409 178.223 C 163.29 174.857 163.162 171.49 163.063 168.124 C 163.055 167.74 163.089 167.253 163.311 166.985 C 164.245 165.837 164.399 164.203 163.789 163.302 C 159.343 163.849 155.098 163.994 150.682 163.187 C 150.622 163.627 150.485 164.228 150.464 164.83 C 150.396 166.997 150.409 167.006 152.538 166.993 C 154.91 166.976 157.278 166.933 159.65 166.933 C 161.267 166.933 161.365 167.031 161.374 168.614 C 161.387 171.857 161.374 175.104 161.395 178.351 C 161.399 178.884 161.519 179.418 161.587 179.955 C 161.702 179.985 161.822 180.015 161.937 180.045 C 162.415 179.499 162.893 178.953 163.409 178.223 M 177.246 75.264 C 176.303 75.366 175.36 75.469 174.34 75.575 C 174.34 80.521 174.34 85.397 174.34 90.385 C 175.945 90.253 177.451 90.129 178.953 90.005 C 178.953 85.022 178.953 80.145 178.953 75.251 C 178.389 75.251 177.933 75.251 177.246 75.264 M 119.155 164.297 C 119.091 166.336 119.074 166.374 121.054 167.198 C 122.129 167.642 122.577 168.414 122.633 169.493 C 122.726 171.319 122.773 173.146 122.893 174.972 C 122.953 175.91 122.628 176.324 121.647 176.375 C 120.239 176.444 118.831 176.61 117.44 176.836 C 117.137 176.887 116.715 177.335 116.668 177.647 C 116.557 178.406 116.634 179.196 116.634 180.177 C 118.788 179.968 120.794 179.733 122.803 179.584 C 123.887 179.507 124.378 178.995 124.373 177.933 C 124.365 174.319 124.442 170.701 124.301 167.091 C 124.271 166.204 123.772 165.077 123.106 164.523 C 122.103 163.695 120.764 163.277 119.479 162.641 C 119.377 163.119 119.275 163.597 119.155 164.297 M 137.225 149.978 C 137.225 147.379 137.225 144.781 137.225 142.114 C 138.679 142.114 139.84 142.084 140.996 142.123 C 141.914 142.153 142.797 141.973 142.814 140.941 C 142.827 139.908 141.948 139.665 141.026 139.669 C 137.613 139.678 134.199 139.678 130.786 139.661 C 129.89 139.657 129.114 139.934 129.079 140.89 C 129.045 141.999 129.937 142.131 130.837 142.118 C 132.156 142.101 133.474 142.114 134.869 142.114 C 134.869 144.538 134.831 146.82 134.899 149.099 C 134.912 149.568 135.202 150.272 135.552 150.413 C 135.962 150.583 136.572 150.255 137.225 149.978 M 167.147 142.118 C 167.292 142.438 167.556 142.754 167.565 143.078 C 167.603 145.114 167.582 147.153 167.586 149.193 C 167.59 150.165 168.068 150.711 169.054 150.579 C 169.933 150.464 170.095 149.781 170.091 149.001 C 170.074 146.726 170.086 144.457 170.086 142.114 C 171.516 142.114 172.8 142.106 174.084 142.118 C 174.908 142.127 175.518 141.743 175.539 140.945 C 175.565 140.13 174.925 139.691 174.127 139.686 C 170.466 139.661 166.805 139.652 163.145 139.678 C 162.351 139.682 161.668 140.19 161.83 140.983 C 161.924 141.431 162.662 141.999 163.17 142.063 C 164.399 142.221 165.662 142.114 167.147 142.118 M 124.902 79.548 C 124.902 78.238 124.902 76.928 124.902 75.52 C 123.196 75.674 121.719 75.806 120.247 75.938 C 120.247 79.471 120.247 82.893 120.247 86.366 C 121.839 86.234 123.319 86.114 124.902 85.986 C 124.902 83.866 124.902 81.83 124.902 79.548 M 168.832 163.507 C 168.346 163.234 167.859 162.961 166.963 162.462 C 166.963 163.789 166.784 164.847 167.036 165.786 C 167.177 166.306 168.141 166.549 168.55 167.061 C 168.887 167.484 169.101 168.119 169.105 168.666 C 169.118 169.69 168.806 170.722 168.866 171.738 C 168.969 173.431 169.242 175.117 169.459 176.802 C 169.604 177.929 169.771 179.055 169.929 180.181 C 170.082 180.228 170.236 180.279 170.385 180.326 C 170.803 179.716 171.426 179.157 171.58 178.487 C 171.755 177.724 171.554 176.858 171.435 176.051 C 171.085 173.717 170.633 171.401 170.368 169.058 C 170.313 168.567 170.765 167.753 171.209 167.526 C 172.13 167.053 172.279 166.4 172.288 165.504 C 172.301 164.506 171.546 164.425 170.906 164.19 C 170.287 163.964 169.647 163.78 168.832 163.507 M 150.844 173.973 C 150.844 175.945 150.844 177.92 150.844 180.096 C 152.124 179.345 152.887 178.654 152.789 177.254 C 152.649 175.27 152.653 173.269 152.585 171.277 C 152.572 170.974 152.482 170.675 152.418 170.321 C 150.827 171.076 150.724 172.356 150.844 173.973 M 167.991 124.975 C 169.51 124.732 170.227 124.023 170.185 122.803 C 170.142 121.694 169.318 120.853 168.209 120.789 C 167.134 120.725 166.263 121.391 166.054 122.441 C 165.803 123.703 166.379 124.527 167.991 124.975 M 86.383 129.783 C 86.135 129.651 85.901 129.463 85.636 129.387 C 84.361 129.033 83.366 129.664 83.076 130.978 C 82.825 132.151 83.55 133.239 84.719 133.427 C 85.905 133.619 86.955 132.877 87.027 131.618 C 87.057 131.063 86.699 130.483 86.383 129.783 M 83.631 123.452 C 83.452 123.814 83.204 124.164 83.11 124.548 C 82.876 125.551 83.247 126.387 84.169 126.805 C 85.103 127.228 86.067 127.108 86.737 126.238 C 87.39 125.38 87.39 124.433 86.665 123.614 C 85.824 122.662 84.821 122.62 83.631 123.452 Z" style=""/><path fill="#245B20" opacity="1.000000" stroke="none" d="M 103.262 211.418 C 103.258 211.409 103.266 211.426 103.262 211.418 Z" style=""/><path fill="#FEC928" opacity="1.000000" stroke="none" d="M 132.369 189.073 C 131.426 189.001 130.479 188.924 129.395 188.838 C 129.37 187.887 129.711 186.897 131.089 186.419 C 132.305 187.038 132.442 188.011 132.369 189.073 Z" style=""/><path fill="#FEC928" opacity="1.000000" stroke="none" d="M 125.137 186.355 C 126.451 186.884 126.869 187.575 126.788 188.89 C 125.867 188.937 124.975 188.988 123.977 188.949 C 123.755 187.759 124.169 186.918 125.137 186.355 Z" style=""/><path fill="#F7A603" opacity="1.000000" stroke="none" d="M 132.407 189.141 C 132.442 188.011 132.305 187.038 131.174 186.411 C 131.469 186.338 131.823 186.321 132.284 186.3 C 133.764 186.85 133.239 188.092 133.389 189.244 C 133.389 189.466 133.414 189.525 133.461 189.572 C 133.478 189.675 133.495 189.777 133.513 189.956 C 133.158 189.756 132.804 189.483 132.407 189.141 Z" style=""/><path fill="#F7A603" opacity="1.000000" stroke="none" d="M 125.03 186.338 C 124.169 186.918 123.755 187.759 123.878 188.971 C 123.55 189.385 123.217 189.696 122.812 190.02 C 122.739 189.926 122.743 189.824 122.795 189.606 C 122.867 189.431 122.867 189.367 122.837 189.308 C 123.038 188.297 122.47 187.068 123.772 186.321 C 124.215 186.304 124.57 186.313 125.03 186.338 Z" style=""/><path fill="#F0E8D3" opacity="1.000000" stroke="none" d="M 177.314 125.197 C 177.071 121.924 176.841 118.771 176.593 115.622 C 176.388 113.003 175.979 112.623 173.393 112.623 C 169.685 112.623 165.982 112.619 162.278 112.623 C 160.439 112.627 159.923 113.003 159.415 114.752 C 158.43 118.148 159.232 121.408 160.205 124.659 C 160.738 126.443 161.263 128.239 161.634 130.061 C 161.971 131.699 161.668 132.186 160.149 132.74 C 157.069 133.858 153.958 134.891 150.865 135.979 C 150.016 136.277 149.487 135.902 149.406 135.142 C 149.257 133.743 149.184 132.322 149.231 130.918 C 149.265 129.894 149.854 129.152 150.895 128.815 C 152 128.461 153.084 128.034 154.18 127.663 C 155.046 127.369 155.439 126.793 155.422 125.879 C 155.388 124.339 155.435 122.795 155.362 121.259 C 155.26 118.997 155.324 116.774 156.348 114.684 C 156.86 113.638 156.578 112.798 155.52 112.329 C 154.483 111.868 154.172 111.087 154.227 110.029 C 154.283 109.073 154.155 108.096 154.304 107.162 C 154.487 106.01 154.871 104.892 155.345 103.757 C 156.284 105.412 157.683 105.681 159.279 105.673 C 165.107 105.647 170.935 105.664 176.764 105.664 C 177.22 105.664 177.681 105.66 178.138 105.673 C 180.48 105.754 180.932 106.176 181.184 108.51 C 181.231 108.962 181.269 109.423 181.269 109.879 C 181.274 117.248 181.278 124.612 181.265 131.981 C 181.265 134.17 180.211 135.531 177.993 136.128 C 177.766 132.497 177.545 128.905 177.314 125.197 Z" style=""/><path fill="#F0E9D3" opacity="1.000000" stroke="none" d="M 91.806 150.541 C 91.716 149.163 91.635 147.874 91.627 146.586 C 91.558 135.974 91.503 125.359 91.443 114.748 C 91.435 112.836 91.23 112.619 89.276 112.614 C 85.197 112.606 81.122 112.614 77.043 112.606 C 76.373 112.606 75.712 112.563 75.046 112.529 C 74.095 112.482 73.596 111.97 73.604 111.019 C 73.617 109.15 73.591 107.273 73.711 105.408 C 73.749 104.823 74.197 104.269 74.586 103.411 C 76.25 105.775 78.43 105.651 80.61 105.621 C 83.733 105.579 86.857 105.54 89.975 105.634 C 92.604 105.711 95.13 105.553 97.579 103.582 C 97.873 104.649 98.197 105.434 98.283 106.24 C 98.389 107.226 98.291 108.237 98.278 109.235 C 98.249 111.817 98.244 111.817 95.936 112.734 C 95.936 115.008 95.863 117.205 95.949 119.398 C 96.239 127.049 96.58 134.694 96.909 142.345 C 96.951 143.3 97.015 144.256 97.114 145.207 C 97.242 146.423 96.849 147.418 95.915 148.194 C 94.921 149.018 93.948 149.867 92.907 150.626 C 92.676 150.793 92.207 150.639 91.806 150.541 Z" style=""/><path fill="#F0E9D3" opacity="1.000000" stroke="none" d="M 144.098 126.379 C 144.098 128.58 144.128 130.662 144.085 132.74 C 144.043 134.844 143.548 135.373 141.478 135.616 C 137.805 136.043 134.135 136.499 130.453 136.841 C 128.576 137.011 128.243 136.666 128.205 134.793 C 128.175 133.466 128.307 132.139 128.354 130.812 C 128.397 129.749 129.003 129.246 129.997 129.122 C 132.51 128.798 135.019 128.461 137.532 128.166 C 139.721 127.906 139.938 127.735 139.895 125.551 C 139.836 122.645 139.729 119.735 139.601 116.826 C 139.533 115.2 138.85 113.954 137.237 113.348 C 136.887 113.216 136.576 112.977 136.218 112.883 C 133.495 112.158 132.544 110.374 132.894 107.652 C 133.073 106.261 132.962 104.832 133.073 103.424 C 133.107 103.031 133.47 102.665 133.679 102.289 C 134.003 102.511 134.426 102.665 134.639 102.967 C 135.987 104.909 138.103 105.655 140.143 106.432 C 142.955 107.503 144.098 109.525 144.094 112.401 C 144.085 117.018 144.094 121.634 144.098 126.379 Z" style=""/><path fill="#EFE7D2" opacity="1.000000" stroke="none" d="M 87.351 71.804 C 87.599 70.046 87.876 68.382 88.111 66.974 C 90.953 67.059 93.589 67.166 96.23 67.209 C 99.593 67.255 101.884 68.706 102.153 72.017 C 102.537 76.668 102.251 81.374 102.251 86.093 C 99.686 86.093 97.033 86.093 94.281 86.093 C 94.281 84.301 94.281 82.534 94.281 80.614 C 95.347 80.614 96.444 80.614 97.643 80.614 C 97.643 78.315 97.728 76.164 97.609 74.022 C 97.545 72.917 96.691 72.653 94.66 72.9 C 93.909 77.308 93.15 81.754 92.39 86.195 C 90.718 86.195 89.161 86.195 87.462 86.195 C 87.991 83.123 88.503 80.149 89.024 77.175 C 89.216 76.075 89.399 74.965 89.643 73.873 C 89.843 72.977 89.638 72.457 88.636 72.341 C 88.205 72.294 87.799 72.051 87.351 71.804 Z" style=""/><path fill="#EEE6D1" opacity="1.000000" stroke="none" d="M 182.323 67.213 C 184.183 67.213 185.92 67.213 187.605 67.213 C 188.459 74.586 187.831 81.455 182.293 87.044 C 181.504 85.833 180.604 84.54 179.827 83.179 C 179.639 82.85 179.729 82.219 179.93 81.852 C 180.557 80.687 181.265 79.556 181.999 78.451 C 183.13 76.753 183.202 74.889 183.01 72.841 C 180.079 72.841 177.186 72.841 174.199 72.841 C 174.199 70.967 174.199 69.205 174.199 67.213 C 176.841 67.213 179.52 67.213 182.323 67.213 Z" style=""/><path fill="#EDE6D1" opacity="1.000000" stroke="none" d="M 156.096 67.213 C 158.711 67.213 161.203 67.213 163.891 67.213 C 163.75 68.996 163.639 70.673 163.452 72.346 C 163.43 72.529 163.004 72.751 162.735 72.806 C 162.334 72.883 161.907 72.823 161.34 72.823 C 161.34 77.227 161.34 81.566 161.34 85.986 C 159.718 86.118 158.246 86.242 156.638 86.374 C 156.638 81.856 156.638 77.427 156.638 72.828 C 154.829 72.828 153.139 72.759 151.458 72.849 C 150.379 72.909 150.101 72.512 150.157 71.501 C 150.238 70.14 150.178 68.77 150.178 67.213 C 152.183 67.213 154.078 67.213 156.096 67.213 Z" style=""/><path fill="#EDE6D0" opacity="1.000000" stroke="none" d="M 132.966 70.379 C 133.171 71.569 133.457 72.674 133.474 73.779 C 133.534 77.478 133.474 81.178 133.517 84.877 C 133.53 85.786 133.261 86.131 132.326 86.123 C 131.174 86.118 130.022 86.268 128.691 86.362 C 128.691 85.662 128.691 85.052 128.691 84.442 C 128.691 81.075 128.666 77.709 128.704 74.342 C 128.717 73.229 128.324 72.772 127.172 72.811 C 125.094 72.875 123.017 72.853 120.939 72.798 C 120.61 72.789 120.017 72.427 120.004 72.205 C 119.923 70.596 119.962 68.983 119.962 67.324 C 123.234 67.324 126.379 67.213 129.51 67.366 C 131.234 67.452 132.275 68.736 132.966 70.379 Z" style=""/><path fill="#EFE7D2" opacity="1.000000" stroke="none" d="M 84.13 86.131 C 81.694 86.131 79.373 86.131 76.996 86.131 C 76.996 84.228 76.996 82.462 76.996 80.585 C 78.285 80.585 79.522 80.585 80.845 80.585 C 80.845 77.965 80.845 75.452 80.845 72.841 C 79.91 72.841 79.01 72.841 78.02 72.841 C 78.02 70.942 78.02 69.146 78.02 67.281 C 80.529 67.281 83.004 67.281 85.572 67.281 C 85.572 73.527 85.572 79.748 85.572 86.131 C 85.133 86.131 84.693 86.131 84.13 86.131 Z" style=""/><path fill="#ECE5D0" opacity="1.000000" stroke="none" d="M 105.98 84.139 C 105.98 80.695 105.958 77.367 105.993 74.044 C 106.001 73.297 105.796 72.96 105.015 72.777 C 103.108 72.324 103.13 72.273 103.364 70.293 C 103.497 69.184 103.599 68.075 103.735 66.761 C 106.825 67.716 109.875 67.785 112.99 66.739 C 113.199 68.45 113.438 69.999 113.532 71.556 C 113.549 71.855 113.033 72.333 112.666 72.478 C 110.814 73.22 110.805 73.19 110.805 75.213 C 110.805 78.374 110.805 81.532 110.805 84.693 C 110.805 85.137 110.805 85.581 110.805 86.076 C 109.158 86.076 107.674 86.076 105.98 86.076 C 105.98 85.466 105.98 84.864 105.98 84.139 Z" style=""/><path fill="#ECE5D0" opacity="1.000000" stroke="none" d="M 134.716 72.26 C 134.643 71.164 134.626 70.118 134.686 69.077 C 134.724 68.378 134.865 67.686 134.989 66.795 C 138.031 67.652 141.077 67.861 144.205 66.692 C 144.418 68.476 144.666 70.067 144.755 71.667 C 144.768 71.936 144.154 72.452 143.782 72.499 C 142.148 72.695 141.939 73.638 141.99 75.081 C 142.101 78.276 142.025 81.485 142.025 84.685 C 142.025 85.133 142.025 85.577 142.025 86.076 C 140.382 86.076 138.893 86.076 137.259 86.076 C 137.237 85.636 137.203 85.197 137.199 84.757 C 137.195 81.429 137.131 78.101 137.233 74.778 C 137.271 73.489 136.977 72.738 135.625 72.593 C 135.343 72.563 135.074 72.41 134.716 72.26 Z" style=""/><path fill="#EFE8D3" opacity="1.000000" stroke="none" d="M 114.389 104.393 C 114.287 104.546 114.103 104.695 114.095 104.849 C 113.86 108.83 111.808 111.799 108.847 114.24 C 107.831 115.081 106.726 115.81 105.6 116.634 C 105.079 115.849 104.649 115.2 104.196 114.522 C 106.372 112.721 108.706 111.104 109.18 108.041 C 109.018 107.964 108.915 107.874 108.813 107.874 C 106.27 107.827 104.627 106.65 104.209 104.563 C 103.748 102.268 104.939 99.887 107.004 98.978 C 109.06 98.069 111.492 98.658 112.794 100.523 C 113.378 101.363 113.707 102.387 114.249 103.403 C 114.364 103.787 114.377 104.09 114.389 104.393 Z" style=""/><path fill="#F0E8D3" opacity="1.000000" stroke="none" d="M 114.381 104.491 C 114.377 104.09 114.364 103.787 114.334 103.369 C 114.253 103.206 114.244 103.147 114.33 102.967 C 114.381 102.793 114.389 102.733 114.394 102.669 C 114.645 100.753 116.062 99.14 117.858 98.718 C 119.893 98.24 121.877 98.944 123.017 100.634 C 124.51 102.852 124.429 105.276 123.669 107.686 C 122.377 111.791 119.27 114.313 115.703 116.574 C 115.234 115.883 114.786 115.217 114.342 114.564 C 118.844 110.327 119.134 109.935 119.151 107.938 C 116.77 107.972 114.974 107.11 114.381 104.491 Z" style=""/><path fill="#EEE6D1" opacity="1.000000" stroke="none" d="M 167.305 81.92 C 167.305 78.852 167.305 75.908 167.305 72.887 C 166.426 72.845 165.658 72.811 164.787 72.772 C 164.787 70.925 164.787 69.133 164.787 67.277 C 167.202 67.277 169.549 67.277 171.977 67.277 C 171.977 73.515 171.977 79.684 171.977 85.982 C 170.5 86.11 169.024 86.238 167.305 86.387 C 167.305 84.907 167.305 83.473 167.305 81.92 Z" style=""/><path fill="#EAE4CE" opacity="1.000000" stroke="none" d="M 99.61 165.709 C 99.571 165.978 99.588 166.217 99.486 166.289 C 98.129 167.258 98.615 168.636 98.714 169.886 C 98.906 172.373 99.145 174.857 99.439 177.335 C 99.588 178.573 99.093 179.311 97.754 179.887 C 97.634 178.957 97.498 178.125 97.425 177.284 C 97.182 174.383 96.943 171.482 96.734 168.58 C 96.653 167.458 96.158 166.938 94.989 167.002 C 93.828 167.07 92.659 167.053 91.494 167.01 C 90.47 166.967 89.946 167.377 89.865 168.422 C 89.643 171.362 89.399 174.306 89.143 177.246 C 89.071 178.091 88.93 178.931 88.811 179.874 C 87.501 179.319 86.997 178.607 87.13 177.37 C 87.462 174.268 87.714 171.162 87.974 168.051 C 88.004 167.71 87.983 167.266 87.795 167.023 C 86.784 165.739 86.626 164.425 87.275 163.247 C 91.324 163.921 95.241 163.908 99.439 163.234 C 99.486 163.853 99.55 164.727 99.61 165.709 Z" style=""/><path fill="#EDE6D0" opacity="1.000000" stroke="none" d="M 105.301 164.19 C 105.579 164.45 105.792 164.642 106.005 164.847 C 107.61 166.366 108.224 166.293 106.859 168.781 C 106.189 170.001 106.603 170.761 108.25 171.738 C 109.538 169.011 110.822 166.293 112.098 163.58 C 114.342 164.57 114.812 165.973 113.929 169.229 C 113.301 168.777 112.742 168.375 111.945 167.799 C 111.019 169.327 110.076 170.816 109.218 172.352 C 109.094 172.57 109.303 173.069 109.491 173.35 C 109.969 174.08 110.477 174.801 111.053 175.454 C 111.872 176.38 111.714 177.353 111.343 178.364 C 110.976 179.371 110.093 179.46 109.197 179.537 C 107.012 179.725 104.828 179.93 102.443 180.143 C 102.443 179.17 102.357 178.338 102.485 177.545 C 102.532 177.242 103.027 176.845 103.369 176.785 C 104.64 176.572 105.929 176.486 107.209 176.346 C 107.605 176.303 108.002 176.235 108.693 176.141 C 107.763 174.848 107.034 173.705 106.176 172.672 C 105.434 171.785 105.195 170.85 105.54 169.783 C 105.843 168.841 105.519 168.226 104.768 167.642 C 103.454 166.63 103.185 164.463 103.996 163.217 C 104.384 163.503 104.811 163.814 105.301 164.19 Z" style=""/><path fill="#EBE4CF" opacity="1.000000" stroke="none" d="M 127.872 160.102 C 127.863 158.379 127.962 156.898 126.626 155.503 C 125.73 154.569 126.093 152.951 126.707 151.578 C 127.398 152.324 128.068 152.943 128.602 153.664 C 128.892 154.061 129.084 154.633 129.088 155.127 C 129.092 157.453 129.079 159.782 128.943 162.103 C 128.87 163.285 129.178 163.759 130.419 163.703 C 132.245 163.618 134.076 163.661 135.906 163.691 C 137.519 163.716 137.852 164.041 138.086 165.615 C 138.278 166.886 138.411 168.175 138.705 169.421 C 138.999 170.671 138.714 171.686 137.929 172.663 C 136.841 174.025 135.637 175.343 134.818 176.858 C 134.251 177.899 133.705 178.837 132.736 179.511 C 132.578 179.622 132.399 179.708 132.233 179.806 C 132.117 179.742 132.002 179.678 131.891 179.614 C 132.297 178.662 132.595 177.647 133.133 176.777 C 134.221 175.01 135.445 173.329 136.61 171.61 C 137.357 170.505 137.263 168.226 136.337 167.317 C 136.064 167.049 135.518 166.976 135.095 166.967 C 133.35 166.925 131.601 166.963 129.856 166.938 C 128.205 166.916 127.885 166.579 127.872 164.962 C 127.863 163.383 127.872 161.805 127.872 160.102 Z" style=""/><path fill="#EEE7D2" opacity="1.000000" stroke="none" d="M 71.266 79.795 C 71.172 77.483 71.172 75.247 71.172 72.87 C 70.204 72.87 69.397 72.87 68.514 72.87 C 68.514 70.929 68.514 69.133 68.514 67.273 C 70.963 67.273 73.353 67.273 75.827 67.273 C 75.827 71.373 75.827 75.418 75.827 79.607 C 74.317 79.697 72.836 79.782 71.266 79.795 Z" style=""/><path fill="#E9E3CD" opacity="1.000000" stroke="none" d="M 163.388 178.317 C 162.893 178.953 162.415 179.499 161.937 180.045 C 161.822 180.015 161.702 179.985 161.587 179.955 C 161.519 179.418 161.399 178.884 161.395 178.351 C 161.374 175.104 161.387 171.857 161.374 168.614 C 161.365 167.031 161.267 166.933 159.65 166.933 C 157.278 166.933 154.91 166.976 152.538 166.993 C 150.409 167.006 150.396 166.997 150.464 164.83 C 150.485 164.228 150.622 163.627 150.682 163.187 C 155.098 163.994 159.343 163.849 163.789 163.302 C 164.399 164.203 164.245 165.837 163.311 166.985 C 163.089 167.253 163.055 167.74 163.063 168.124 C 163.162 171.49 163.29 174.857 163.388 178.317 Z" style=""/><path fill="#EFE8D3" opacity="1.000000" stroke="none" d="M 177.361 75.26 C 177.933 75.251 178.389 75.251 178.953 75.251 C 178.953 80.145 178.953 85.022 178.953 90.005 C 177.451 90.129 175.945 90.253 174.34 90.385 C 174.34 85.397 174.34 80.521 174.34 75.575 C 175.36 75.469 176.303 75.366 177.361 75.26 Z" style=""/><path fill="#EEE7D2" opacity="1.000000" stroke="none" d="M 119.164 164.186 C 119.275 163.597 119.377 163.119 119.479 162.641 C 120.764 163.277 122.103 163.695 123.106 164.523 C 123.772 165.077 124.271 166.204 124.301 167.091 C 124.442 170.701 124.365 174.319 124.373 177.933 C 124.378 178.995 123.887 179.507 122.803 179.584 C 120.794 179.733 118.788 179.968 116.634 180.177 C 116.634 179.196 116.557 178.406 116.668 177.647 C 116.715 177.335 117.137 176.887 117.44 176.836 C 118.831 176.61 120.239 176.444 121.647 176.375 C 122.628 176.324 122.953 175.91 122.893 174.972 C 122.773 173.146 122.726 171.319 122.633 169.493 C 122.577 168.414 122.129 167.642 121.054 167.198 C 119.074 166.374 119.091 166.336 119.164 164.186 Z" style=""/><path fill="#EEE7D2" opacity="1.000000" stroke="none" d="M 137.161 150.059 C 136.572 150.255 135.962 150.583 135.552 150.413 C 135.202 150.272 134.912 149.568 134.899 149.099 C 134.831 146.82 134.869 144.538 134.869 142.114 C 133.474 142.114 132.156 142.101 130.837 142.118 C 129.937 142.131 129.045 141.999 129.079 140.89 C 129.114 139.934 129.89 139.657 130.786 139.661 C 134.199 139.678 137.613 139.678 141.026 139.669 C 141.948 139.665 142.827 139.908 142.814 140.941 C 142.797 141.973 141.914 142.153 140.996 142.123 C 139.84 142.084 138.679 142.114 137.225 142.114 C 137.225 144.781 137.225 147.379 137.161 150.059 Z" style=""/><path fill="#EEE7D2" opacity="1.000000" stroke="none" d="M 167.027 142.114 C 165.662 142.114 164.399 142.221 163.17 142.063 C 162.662 141.999 161.924 141.431 161.83 140.983 C 161.668 140.19 162.351 139.682 163.145 139.678 C 166.805 139.652 170.466 139.661 174.127 139.686 C 174.925 139.691 175.565 140.13 175.539 140.945 C 175.518 141.743 174.908 142.127 174.084 142.118 C 172.8 142.106 171.516 142.114 170.086 142.114 C 170.086 144.457 170.074 146.726 170.091 149.001 C 170.095 149.781 169.933 150.464 169.054 150.579 C 168.068 150.711 167.59 150.165 167.586 149.193 C 167.582 147.153 167.603 145.114 167.565 143.078 C 167.556 142.754 167.292 142.438 167.027 142.114 Z" style=""/><path fill="#EFE8D3" opacity="1.000000" stroke="none" d="M 124.902 79.671 C 124.902 81.83 124.902 83.866 124.902 85.986 C 123.319 86.114 121.839 86.234 120.247 86.366 C 120.247 82.893 120.247 79.471 120.247 75.938 C 121.719 75.806 123.196 75.674 124.902 75.52 C 124.902 76.928 124.902 78.238 124.902 79.671 Z" style=""/><path fill="#EAE4CE" opacity="1.000000" stroke="none" d="M 168.926 163.546 C 169.647 163.78 170.287 163.964 170.906 164.19 C 171.546 164.425 172.301 164.506 172.288 165.504 C 172.279 166.4 172.13 167.053 171.209 167.526 C 170.765 167.753 170.313 168.567 170.368 169.058 C 170.633 171.401 171.085 173.717 171.435 176.051 C 171.554 176.858 171.755 177.724 171.58 178.487 C 171.426 179.157 170.803 179.716 170.385 180.326 C 170.236 180.279 170.082 180.228 169.929 180.181 C 169.771 179.055 169.604 177.929 169.459 176.802 C 169.242 175.117 168.969 173.431 168.866 171.738 C 168.806 170.722 169.118 169.69 169.105 168.666 C 169.101 168.119 168.887 167.484 168.55 167.061 C 168.141 166.549 167.177 166.306 167.036 165.786 C 166.784 164.847 166.963 163.789 166.963 162.462 C 167.859 162.961 168.346 163.234 168.926 163.546 Z" style=""/><path fill="#EDE6D1" opacity="1.000000" stroke="none" d="M 150.844 173.854 C 150.724 172.356 150.827 171.076 152.418 170.321 C 152.482 170.675 152.572 170.974 152.585 171.277 C 152.653 173.269 152.649 175.27 152.789 177.254 C 152.887 178.654 152.124 179.345 150.844 180.096 C 150.844 177.92 150.844 175.945 150.844 173.854 Z" style=""/><path fill="#F0E8D3" opacity="1.000000" stroke="none" d="M 167.902 124.962 C 166.379 124.527 165.803 123.703 166.054 122.441 C 166.263 121.391 167.134 120.725 168.209 120.789 C 169.318 120.853 170.142 121.694 170.185 122.803 C 170.227 124.023 169.51 124.732 167.902 124.962 Z" style=""/><path fill="#EFE7D2" opacity="1.000000" stroke="none" d="M 86.451 129.852 C 86.699 130.483 87.057 131.063 87.027 131.618 C 86.955 132.877 85.905 133.619 84.719 133.427 C 83.55 133.239 82.825 132.151 83.076 130.978 C 83.366 129.664 84.361 129.033 85.636 129.387 C 85.901 129.463 86.135 129.651 86.451 129.852 Z" style=""/><path fill="#EAE4CE" opacity="1.000000" stroke="none" d="M 83.703 123.383 C 84.821 122.62 85.824 122.662 86.665 123.614 C 87.39 124.433 87.39 125.38 86.737 126.238 C 86.067 127.108 85.103 127.228 84.169 126.805 C 83.247 126.387 82.876 125.551 83.11 124.548 C 83.204 124.164 83.452 123.814 83.703 123.383 Z" style=""/><path fill="#B76219" opacity="1.000000" stroke="none" d="M 133.483 189.525 C 133.414 189.525 133.389 189.466 133.402 189.355 C 133.47 189.35 133.5 189.406 133.483 189.525 Z" style=""/><path fill="#B76219" opacity="1.000000" stroke="none" d="M 122.803 189.342 C 122.867 189.367 122.867 189.431 122.816 189.534 C 122.743 189.513 122.735 189.449 122.803 189.342 Z" style=""/><path fill="#EFE8D3" opacity="1.000000" stroke="none" d="M 114.359 102.707 C 114.389 102.733 114.381 102.793 114.372 102.946 C 114.342 102.976 114.317 102.912 114.304 102.848 C 114.295 102.818 114.317 102.78 114.359 102.707 Z" style=""/><rect x="75.281" y="195.085" width="5.35" height="4.343" style="stroke: rgb(0, 0, 0); stroke-opacity: 0; fill: rgb(36, 91, 32); stroke-width: 1;"/><path d="M 115.209 222.613 C 110.089 219.686 104.99 216.725 99.849 213.833 C 84.749 205.338 69.641 196.855 54.507 188.416 C 53.355 187.776 52.988 187.017 52.919 185.766 C 52.48 177.711 51.972 169.655 51.49 161.6 C 51.046 154.167 50.62 146.735 50.167 139.302 C 49.621 130.377 49.05 121.455 48.499 112.525 C 48.051 105.178 47.625 97.826 47.177 90.479 C 46.716 82.923 46.225 75.366 45.764 67.81 C 45.427 62.204 45.116 56.597 44.791 50.991 C 44.727 49.856 45.342 49.395 46.383 49.148 C 56.111 46.848 65.83 44.501 75.558 42.193 C 92.233 38.238 108.911 34.317 125.577 30.34 C 127.667 29.841 129.617 30.323 131.597 30.788 C 157.47 36.83 183.343 42.88 209.216 48.93 C 211.332 49.425 211.439 49.502 211.315 51.682 C 210.859 59.319 210.368 66.957 209.894 74.598 C 209.446 81.822 209.011 89.045 208.55 96.269 C 208.098 103.407 207.616 110.545 207.159 117.683 C 206.703 124.74 206.268 131.797 205.815 138.854 C 205.355 146.078 204.877 153.297 204.412 160.521 C 204.045 166.251 203.682 171.977 203.324 177.707 C 203.136 180.698 202.927 183.684 202.803 186.675 C 202.765 187.657 202.159 188.019 201.455 188.416 C 194.56 192.273 187.674 196.134 180.787 200 C 169.084 206.579 157.385 213.158 145.685 219.742 C 144.132 220.617 142.601 221.525 140.954 222.37 C 140.13 220.023 139.405 217.724 138.761 215.39 C 140.139 214.524 141.397 213.632 142.733 212.877 C 160.055 203.081 177.387 193.306 194.726 183.543 C 195.383 183.172 195.695 182.75 195.729 181.999 C 195.895 178.761 196.096 175.518 196.292 172.279 C 196.651 166.426 197.005 160.572 197.372 154.718 C 197.841 147.162 198.319 139.605 198.788 132.049 C 199.151 126.195 199.501 120.337 199.863 114.483 C 200.337 106.846 200.815 99.204 201.293 91.567 C 201.673 85.547 202.061 79.526 202.441 73.506 C 202.803 67.695 203.162 61.884 203.516 56.068 C 203.533 55.795 203.482 55.514 203.465 55.232 C 203.123 55.134 202.85 55.04 202.569 54.976 C 178.082 49.28 153.6 43.584 129.114 37.918 C 128.418 37.756 127.62 37.743 126.925 37.905 C 106.423 42.662 85.931 47.454 65.438 52.241 C 61.129 53.248 56.819 54.276 52.425 55.313 C 52.638 58.953 52.843 62.519 53.06 66.086 C 53.525 73.6 53.999 81.114 54.464 88.627 C 54.835 94.609 55.181 100.587 55.556 106.569 C 56.098 115.243 56.661 123.921 57.195 132.599 C 57.655 140.07 58.082 147.546 58.539 155.021 C 59.089 164.032 59.669 173.039 60.198 182.05 C 60.241 182.818 60.501 183.232 61.158 183.59 C 64.943 185.677 68.71 187.797 72.478 189.914 C 87.437 198.31 102.391 206.711 117.35 215.215 L 115.209 222.613 Z" style="stroke: rgb(0, 0, 0); stroke-opacity: 0; fill: rgb(36, 91, 32); stroke-width: 1;"/></svg>